<svg width="465" height="23" viewBox="0 0 465 23" fill="none" xmlns="http://www.w3.org/2000/svg">
<path d="M408.176 13.169C405.306 16.1274 401.963 18.0857 398.134 19.2784C395.124 20.2315 392.061 20.7107 388.91 19.9919C387.379 19.6586 385.895 19.0857 384.702 18.0388C384.03 17.4659 383.504 17.5128 382.692 17.8461C377.051 20.0388 371.265 20.7576 365.291 19.6586C362.52 19.1326 359.936 18.1326 357.64 16.4138C357.16 16.0336 356.78 16.0336 356.254 16.2732C349.895 19.518 343.155 20.4242 336.124 19.8982C333.546 19.7055 331.108 19.0857 328.905 17.6534C327.905 16.9867 326.994 16.2211 326.327 15.268C325.895 14.6482 325.561 14.6482 324.936 14.9346C321.973 16.3669 318.869 17.2732 315.567 17.5596C310.931 17.9867 306.39 17.7055 302.134 15.6534C301.223 15.2211 300.364 14.7419 299.598 14.1221C299.171 13.7888 298.884 13.8357 298.546 14.2211C297.733 15.1274 296.827 15.9867 295.822 16.7003C292.718 19.0388 289.176 20.3253 285.447 21.044C281.145 21.8565 276.796 21.9503 272.494 21.1378C268.713 20.4242 265.749 18.5128 263.697 15.2211C262.884 13.9346 263.072 14.0753 261.78 14.794C257.384 17.2263 252.65 18.6586 247.676 19.1846C243.947 19.5649 240.218 19.6586 236.489 19.1326C233.957 18.7992 231.614 17.9867 229.702 16.2211C229.223 15.794 228.843 15.7003 228.218 15.9399C222.436 18.419 216.364 19.3721 210.051 19.0857C206.129 18.8982 202.353 18.2263 198.91 16.2211C198.15 15.794 197.525 14.8409 196.666 14.8878C195.9 14.9346 195.134 15.6013 194.369 15.9867C188.728 18.7524 182.754 19.8982 176.489 19.3721C174.291 19.1846 172.186 18.6586 170.322 17.4659C169.655 17.0336 169.077 17.0805 168.364 17.3201C163.056 19.3253 157.655 19.3721 152.202 17.8461C151.009 17.5128 149.905 16.9867 148.853 16.2732C148.233 15.8409 147.754 15.8409 147.088 16.2211C140.728 19.9451 133.796 21.3305 126.478 20.7107C122.749 20.4242 119.405 19.0388 116.869 16.1274C116.395 15.6013 116.056 15.5544 115.436 15.8409C111.515 17.7055 107.358 18.0857 103.103 17.7055C100.952 17.5128 98.8948 17.0805 96.9365 16.2211C95.1657 15.4607 93.6344 14.4086 92.249 13.1221C91.7698 13.2159 91.5302 13.6013 91.1969 13.8878C86.3688 18.0857 80.775 20.2315 74.4625 20.7576C71.499 20.9971 68.5823 20.9503 65.7125 20.2315C61.8896 19.2315 59.0198 16.9867 57.2021 13.5024C56.775 12.643 56.7282 12.5961 55.9157 13.169C51.3219 16.2211 46.3063 17.419 40.8063 17.0805C37.9834 16.893 35.3063 16.2211 32.9157 14.6013C32.4365 14.268 32.0094 14.0284 31.4365 14.5076C28.5667 16.794 25.2177 17.8461 21.6813 18.3253C17.6188 18.8982 13.5563 18.9451 9.58753 17.893C7.43648 17.3201 5.37919 16.4138 3.65523 14.9815C2.12919 13.7419 1.03023 12.1221 0.264611 10.3565C0.165652 10.1169 0.071901 9.92423 0.071901 9.68465C-0.0739324 9.35131 -0.0218493 8.87736 0.452108 8.68465C0.978151 8.49194 1.36357 8.7784 1.55628 9.25756C1.60315 9.39819 1.65003 9.54402 1.6969 9.63777C2.70211 12.169 4.51982 13.9815 6.95732 15.1274C9.20211 16.1742 11.5927 16.7471 14.0823 16.893C17.8584 17.0805 21.6344 16.893 25.3167 15.794C26.8427 15.3149 28.2802 14.6013 29.6188 13.6951C30.7177 12.9294 30.7177 12.9294 29.9521 11.9294C28.4729 9.92423 27.7542 7.63256 27.8479 5.1534C27.8948 3.91381 28.2334 2.72111 28.999 1.7159C30.5719 -0.289312 32.9625 -0.570561 34.8792 1.04923C36.5042 2.43465 36.9834 4.24715 36.8375 6.29923C36.6917 8.30444 35.9313 10.018 34.6396 11.5961C34.3011 11.9763 33.9677 12.4086 33.5875 12.8357C34.3011 13.6951 35.2594 14.0284 36.2177 14.4086C38.749 15.3669 41.3792 15.6013 44.0094 15.4607C48.1188 15.2211 51.8479 13.8878 55.2438 11.5961C55.9625 11.1169 56.249 10.643 56.1032 9.78361C55.8636 7.91902 56.2021 6.10652 57.0146 4.38777C57.4938 3.3409 58.2073 2.57527 59.3063 2.19506C60.6448 1.76277 61.7438 2.33569 62.1761 3.72111C62.5094 4.77319 62.2698 5.77319 61.9365 6.77319C61.4104 8.39819 60.3584 9.68465 59.1657 10.8305C58.2073 11.6899 58.2073 11.7367 58.7802 12.8357C60.5042 16.2732 63.374 18.3253 67.0511 18.8461C75.1344 20.0388 82.5927 18.5128 89.0927 13.4086C89.3792 13.169 89.6657 12.9294 89.9521 12.6951C90.9104 11.8357 90.8636 11.8357 90.3375 10.7367C89.4261 8.82527 89.1917 6.87215 89.6657 4.82006C89.8584 4.00756 90.1917 3.29402 90.7646 2.72111C92.0563 1.47631 93.8271 1.62215 94.7854 3.14819C95.5979 4.38777 95.7854 5.77319 95.4521 7.25236C95.1657 8.68465 94.5927 9.97111 93.7334 11.1169C93.2542 11.7836 93.3948 12.169 93.9677 12.643C95.6448 14.1221 97.5563 15.0805 99.7073 15.6013C103.723 16.6065 107.785 16.5076 111.801 15.5544C112.28 15.4607 112.713 15.268 113.14 15.1274C113.811 14.8878 114.624 14.7419 115.004 14.1742C115.343 13.6013 114.718 12.9763 114.577 12.3565C113.858 9.78361 114.004 7.29923 115.296 4.96069C115.916 3.86694 116.728 2.96069 117.921 2.43465C120.072 1.47631 122.176 2.43465 122.942 4.62736C123.567 6.53882 123.181 8.35131 122.228 10.0701C121.41 11.4971 120.265 12.5961 119.072 13.6482C117.681 14.8409 117.681 14.8409 119.119 16.1274C120.89 17.6534 122.942 18.6586 125.192 18.9451C132.598 19.9919 139.582 18.5596 146.082 14.9346C146.228 14.8878 146.275 14.7419 146.468 14.6013C145.509 13.3617 144.744 12.0232 144.457 10.4503C143.931 7.34611 144.744 4.62736 146.754 2.28881C147.515 1.38257 148.567 0.762772 149.765 0.570064C152.634 0.0961058 154.879 1.76277 155.311 4.67423C155.598 6.58569 155.166 8.35131 154.16 9.97111C153.301 11.4034 152.155 12.5961 150.91 13.6951C150.483 14.0753 149.957 14.3149 149.671 15.0284C155.598 18.0857 161.619 17.8461 167.739 15.8878C167.739 15.2211 167.358 14.8409 167.166 14.4086C166.353 12.3565 167.025 9.97111 168.744 8.68465C170.754 7.20548 173.192 8.20548 173.525 10.6899C173.718 12.3096 173.093 13.6482 172.093 14.8409C171.754 15.2211 171.421 15.6013 171.041 16.0336C172.999 17.2732 175.15 17.7055 177.348 17.8461C183.567 18.1794 189.447 16.8461 194.942 13.7888C195.088 13.7419 195.181 13.6013 195.28 13.5024C195.28 12.9763 194.848 12.6951 194.655 12.2628C193.176 9.45027 193.317 6.72631 194.994 4.05444C196.759 1.24194 200.775 1.5284 202.4 2.86173C203.692 3.91381 204.265 5.20027 203.884 6.87215C203.598 8.25236 202.879 9.39819 202.02 10.4503C201.015 11.6899 199.723 12.6951 198.483 13.6951C198.77 14.268 199.343 14.5076 199.775 14.794C202.259 16.3201 205.03 16.9399 207.853 17.2263C214.067 17.8461 220.14 17.1794 225.973 14.9815C226.353 14.8409 226.739 14.6482 227.166 14.5076C227.645 14.3149 227.791 14.0753 227.645 13.5492C226.64 9.49715 228.89 6.1534 232.952 5.48673C233.957 5.34611 234.963 5.48673 235.822 5.9659C236.921 6.53881 237.4 7.58569 237.16 8.7784C236.968 9.73152 236.442 10.544 235.822 11.2107C234.817 12.3096 233.624 13.169 232.379 13.8878C231.9 14.1742 231.421 14.4607 230.848 14.7419C231.088 15.3149 231.614 15.5544 232.093 15.8409C233.525 16.7471 235.103 17.1794 236.78 17.3669C244.999 18.3253 252.89 17.3201 260.348 13.4555C260.728 13.2628 261.067 13.0284 261.447 12.8357C262.02 12.5492 262.166 12.2159 261.926 11.5961C261.353 9.92423 261.306 8.15861 261.494 6.39298C261.686 4.53361 262.546 3.10131 264.077 2.00236C265.223 1.19507 266.515 1.00236 267.853 1.28881C269.384 1.62215 270.343 3.05444 270.15 4.86694C270.004 6.1534 269.525 7.34611 268.858 8.44506C267.9 9.92423 266.707 11.2107 265.369 12.3096C264.41 13.0753 264.457 13.0753 265.082 14.1221C266.801 17.0336 269.384 18.7524 272.681 19.3253C279.14 20.4242 285.4 19.8982 291.426 17.1794C293.624 16.1742 295.489 14.794 297.114 13.0284C297.593 12.5492 297.64 12.169 297.259 11.5492C296.207 9.78361 296.108 7.87215 296.733 5.9659C296.973 5.20027 297.4 4.48673 298.072 4.00756C299.41 3.00756 300.989 3.5284 301.463 5.10652C301.848 6.29923 301.702 7.53881 301.416 8.73152C301.176 9.63777 300.936 10.544 300.41 11.3565C299.983 12.0232 300.223 12.3565 300.749 12.7419C302.614 14.0753 304.718 14.9346 306.963 15.3669C312.796 16.4607 318.436 15.8878 323.89 13.4086C324.936 12.9294 324.936 12.9294 324.702 11.8357C324.27 9.78361 324.317 7.7784 325.129 5.86694C326.228 3.38777 328.619 2.14819 331.249 2.67423C333.4 3.10131 335.551 5.34611 333.739 8.30444C332.973 9.54402 331.921 10.4971 330.822 11.3565C329.91 12.0701 329.004 12.6951 327.999 13.2628C327.426 13.6013 327.473 13.8878 327.853 14.3617C329.098 15.8878 330.723 16.794 332.588 17.3669C335.457 18.2732 338.468 18.3721 341.431 18.2263C345.739 17.9867 349.848 17.1794 353.817 15.4607C354.15 15.3149 354.483 15.1742 354.822 14.9815C355.588 14.5544 355.634 14.5544 355.155 13.7419C353.817 11.4034 353.624 9.01798 354.963 6.58569C355.681 5.24715 356.78 4.29402 358.358 4.10131C361.228 3.76798 363.619 6.48673 363.046 9.45027C362.707 11.1169 361.801 12.4086 360.556 13.4555C359.983 13.9346 359.41 14.4086 358.739 14.9346C359.124 15.5076 359.697 15.7471 360.176 16.0336C362.66 17.3669 365.338 18.1326 368.16 18.3253C372.223 18.5596 376.192 18.1794 380.061 16.9399C380.827 16.7003 381.593 16.5076 382.265 16.0336C382.218 15.5544 381.879 15.268 381.692 14.8878C380.207 11.8826 380.4 8.97111 381.926 6.05965C382.838 4.3409 384.317 3.67423 386.181 3.96069C387.186 4.10132 388.145 4.38777 389.004 4.82006C391.249 6.01277 392.16 8.30444 391.249 10.6899C390.582 12.5024 389.291 13.7888 387.811 14.9346C387.093 15.4607 386.327 15.9399 385.561 16.4607C386.28 17.3201 387.233 17.7055 388.192 18.0388C390.629 18.8461 393.114 18.7055 395.603 18.0857C399.572 17.0805 403.155 15.4138 406.119 12.5492C406.692 11.9763 406.884 11.5492 406.457 10.7367C405.499 8.97111 405.306 7.05965 405.931 5.10652C406.457 3.43465 407.457 2.19506 409.181 1.57527C410.66 1.04923 412.051 1.81486 412.478 3.3409C412.765 4.38777 412.525 5.39298 412.285 6.39298C411.811 8.11173 410.999 9.63777 409.848 10.9763C409.369 11.5492 409.369 11.9294 409.895 12.5024C413.436 16.5596 417.832 18.1794 423.239 17.5596C426.869 17.1326 429.931 15.6534 432.608 13.2628C433.66 12.3096 433.66 12.3096 433.082 11.0701C432.322 9.30444 431.89 7.49194 432.27 5.53361C432.509 4.29402 433.228 3.38777 434.421 2.90861C436.384 2.10131 438.103 3.14819 438.296 5.24715C438.489 7.34611 437.817 9.25756 436.811 11.0701C435.999 12.5024 435.999 12.5024 437.291 13.5024C441.119 16.4138 445.228 16.4607 449.483 14.794C449.723 14.6951 449.916 14.6013 450.155 14.5076C451.395 13.9346 451.395 13.9346 451.015 12.643C450.39 10.6899 450.39 8.73152 451.155 6.82527C451.78 5.20027 453.02 4.3409 454.358 4.48673C455.697 4.62736 456.749 5.86694 456.942 7.63256C457.088 8.7784 456.796 9.87736 456.322 10.9294C455.843 11.9763 455.171 12.8826 454.358 13.6951C453.832 14.2211 453.978 14.5544 454.41 14.9815C455.457 16.0336 456.655 16.8461 457.947 17.5596C459.572 18.4659 461.291 19.0857 463.015 19.7524C463.348 19.8982 463.733 19.9919 464.067 20.1846C464.733 20.5649 464.879 21.044 464.546 21.5701C464.16 22.1899 463.348 22.4294 462.869 21.9034C462.296 21.2836 461.577 21.1378 460.91 20.8513C458.759 19.9919 456.655 19.0388 454.791 17.6534C454.504 17.419 454.218 17.1794 453.884 16.9399C453.306 16.5076 452.973 15.6013 452.306 15.6013C451.681 15.5544 451.015 16.1274 450.39 16.4138C445.9 18.2732 441.499 18.419 437.244 15.7003C436.577 15.268 435.952 14.7419 435.332 14.2211C434.9 13.8357 434.66 13.8878 434.28 14.268C433.468 15.0805 432.608 15.794 431.65 16.4138C427.061 19.518 422.041 20.1846 416.733 19.0388C414.103 18.5128 411.952 17.0336 410.041 15.2211C409.515 14.5544 408.895 13.9346 408.176 13.169ZM148.093 13.4555C150.098 12.0701 151.822 10.4971 152.921 8.35131C153.686 6.91902 153.926 5.39298 153.301 3.86694C152.728 2.43465 151.343 1.76277 149.858 2.24194C148.952 2.5284 148.28 3.05444 147.754 3.81486C147.088 4.67423 146.608 5.67944 146.416 6.72631C145.843 9.25757 146.176 11.4971 148.093 13.4555ZM382.645 10.6899C382.645 12.169 382.978 13.3617 383.697 14.5076C384.03 15.0805 384.369 15.1742 384.942 14.794C385.848 14.2211 386.806 13.6951 387.572 12.9294C388.478 12.0701 389.291 11.2107 389.723 10.018C390.249 8.49194 389.723 7.20548 388.332 6.43986C387.572 6.01277 386.759 5.82007 385.895 5.72631C384.895 5.63257 384.176 6.01277 383.65 6.87215C382.931 8.06486 382.692 9.45027 382.645 10.6899ZM195.468 8.30444C195.52 9.54402 195.853 10.6899 196.572 11.7367C196.905 12.2628 197.239 12.3096 197.718 11.9294C198.624 11.2107 199.582 10.4971 200.348 9.5909C201.114 8.73152 201.78 7.82527 202.114 6.72631C202.546 5.39298 201.973 4.29402 200.681 3.81486C198.963 3.14819 197.239 3.76798 196.332 5.34611C195.806 6.25236 195.567 7.25236 195.468 8.30444ZM35.0198 5.67944C35.0198 5.1534 35.0198 4.62736 34.8271 4.05444C34.3532 2.67423 33.2021 1.7159 32.0563 1.81486C30.9573 1.90861 30.0511 2.90861 29.8115 4.38777C29.4261 6.87215 30.1448 9.06486 31.5771 11.0232C31.8636 11.4503 32.2021 11.5961 32.5823 11.1169C34.0667 9.63777 35.0198 7.91902 35.0198 5.67944ZM116.869 12.9294C118.785 11.4971 120.41 10.018 121.223 7.7784C121.509 7.01277 121.556 6.20548 121.364 5.39298C121.03 3.76798 119.692 3.19507 118.306 4.10131C117.588 4.58048 117.061 5.24715 116.728 6.05965C115.77 8.35131 115.869 10.544 116.869 12.9294ZM326.66 12.0701C328.572 11.0232 330.197 9.92423 331.535 8.44506C331.874 8.11173 332.108 7.73152 332.348 7.29923C332.973 6.1534 332.588 5.20027 331.395 4.67423C329.864 4.05444 327.952 4.67423 327.14 6.1534C326.088 7.9659 326.041 9.87736 326.66 12.0701ZM361.322 8.63777C361.322 7.39819 360.603 6.39298 359.504 6.05965C358.452 5.72631 357.452 6.1534 356.733 7.25236C355.588 8.97111 355.634 11.4034 356.874 13.0753C357.259 13.6013 357.546 13.6013 358.025 13.2628C358.884 12.643 359.744 11.9763 360.416 11.1169C360.989 10.3565 361.322 9.54402 361.322 8.63777ZM263.884 11.2628C265.942 9.68465 267.567 7.9659 268.285 5.58048C268.379 5.24715 268.426 4.82006 268.426 4.48673C268.426 3.43465 267.9 2.90861 266.848 2.96069C265.463 3.05444 264.41 3.81486 263.884 5.05965C262.978 7.05965 263.072 9.11173 263.884 11.2628ZM233.384 7.20548C231.713 7.20548 229.749 8.73152 229.27 10.5909C229.082 11.3096 229.129 11.9763 229.369 12.6951C229.556 13.1221 229.749 13.3149 230.228 13.0284C231.041 12.5492 231.853 12.1221 232.666 11.5961C233.577 11.0232 234.436 10.3044 235.056 9.39819C235.39 8.92423 235.728 8.39819 235.442 7.82527C235.15 7.25236 234.53 7.20548 233.957 7.20548C233.811 7.20548 233.718 7.20548 233.384 7.20548ZM408.369 10.1169C409.707 8.5909 410.52 6.9659 410.9 5.1534C410.947 4.82006 410.999 4.48673 410.947 4.1534C410.853 3.29402 410.374 3.00756 409.608 3.38777C408.702 3.86694 408.176 4.62736 407.89 5.53361C407.457 7.05965 407.556 8.53881 408.369 10.1169ZM92.249 10.1638C93.3011 8.49194 94.0667 7.05965 93.8271 5.24715C93.7334 4.58048 93.5875 3.91381 92.8688 3.67423C92.3948 3.5284 91.7698 4.20027 91.5771 5.10652C91.2438 6.72631 91.2907 8.35131 92.249 10.1638ZM453.067 12.5024C454.171 11.3565 454.884 10.3044 455.223 9.01798C455.364 8.44507 455.364 7.87215 455.223 7.34611C455.077 6.87215 454.931 6.43986 454.358 6.34611C453.785 6.25236 453.499 6.58569 453.259 7.05965C453.119 7.34611 452.973 7.63256 452.879 7.9659C452.447 9.39819 452.447 10.8305 453.067 12.5024ZM435.093 10.643C436.098 9.01798 436.671 7.53881 436.718 5.86694C436.718 5.29402 436.671 4.67423 435.952 4.53361C435.285 4.43986 434.759 4.77319 434.421 5.34611C434.374 5.48673 434.28 5.58048 434.233 5.72631C433.947 7.39819 434.233 8.97111 435.093 10.643ZM168.697 12.2628C168.697 13.1221 168.89 13.6951 169.27 14.268C169.416 14.4607 169.603 14.5544 169.843 14.4086C170.801 13.9346 171.9 12.0232 171.806 10.9763C171.754 10.4971 171.614 10.018 171.134 9.83048C170.655 9.63777 170.181 9.73152 169.796 10.0701C169.129 10.6899 168.744 11.4503 168.697 12.2628ZM58.0146 9.35131C59.5459 7.9659 60.4573 6.53881 60.5511 4.67423C60.5511 4.38777 60.5511 4.10131 60.2646 3.91381C59.9313 3.72111 59.6448 3.96069 59.4052 4.1534C59.2125 4.29402 59.0198 4.48673 58.9261 4.67423C58.2073 6.05965 57.8271 7.53881 58.0146 9.35131ZM298.832 10.4971C299.65 8.97111 300.03 7.63256 299.884 6.1534C299.884 5.86694 299.791 5.53361 299.504 5.48673C299.218 5.39298 298.978 5.67944 298.832 5.91902C298.072 7.29923 297.926 8.7784 298.832 10.4971Z" fill="#121212"/>
</svg>
