<svg width="480" height="27" viewBox="0 0 480 27" fill="none" xmlns="http://www.w3.org/2000/svg">
<path d="M120.032 13.2291C121.36 14.1979 122.532 15.2135 123.49 16.5C124.177 17.5156 124.87 18.5364 125.136 19.7135C125.401 20.8385 125.349 21.9635 124.339 22.7656C123.328 23.5729 122.157 23.4635 121.094 22.8229C119.761 22.0156 118.698 20.8906 117.849 19.6041C116.677 17.8385 115.933 15.8541 115.188 13.875C114.974 13.2291 114.709 12.802 113.86 12.802C109.443 12.8541 105.026 12.8541 100.61 12.9114C100.5 12.9114 100.448 13.0156 100.292 13.0729C100.448 13.6614 100.979 13.927 101.354 14.3541C102.526 15.5885 103.589 16.875 104.282 18.4791C104.599 19.177 104.813 19.875 104.761 20.625C104.703 22.552 103.323 23.5156 101.516 22.8229C100.344 22.3906 99.4378 21.5364 98.693 20.5729C97.2555 18.75 96.3545 16.6614 95.6618 14.5156C95.1305 12.75 95.0211 13.0729 93.693 13.0729C88.0003 13.0729 82.3076 13.0729 76.6149 13.0729C76.2399 13.0729 75.8701 13.0729 75.443 13.0729C75.443 13.7656 75.9743 14.0364 76.292 14.3541C77.5732 15.5885 78.4743 17.0364 79.2711 18.6406C79.8597 19.7656 80.1253 20.9479 80.0159 22.177C79.8597 24.1041 78.318 25.0729 76.5055 24.375C74.1149 23.4635 72.5159 21.6406 71.4013 19.3906C70.7086 18 70.1774 16.4479 69.5368 15C68.4743 12.5364 69.2191 12.9114 66.3961 12.9114C63.3128 12.9114 60.1722 12.9114 57.0888 12.9635C56.5524 12.9635 55.917 12.802 55.3284 13.3385C56.1305 13.9791 56.8753 14.625 57.6722 15.2656C59.0003 16.3385 60.1722 17.5729 60.9691 19.0729C61.8753 20.677 61.8232 21.9635 60.8649 22.875C59.9586 23.7864 58.5784 23.9479 57.0316 23.1406C54.8493 22.0729 53.2034 20.3541 51.818 18.375C50.8597 17.0364 50.0107 15.6406 49.318 14.1406C48.8909 13.2291 48.3597 13.0729 47.5107 13.125C45.3284 13.177 43.1982 13.2291 41.0159 13.2864C38.943 13.3385 36.8128 13.3906 34.3128 13.5C35.2711 14.25 35.9118 14.8385 36.6045 15.375C37.8232 16.3385 38.943 17.302 39.9534 18.5364C40.2711 18.9635 40.5941 19.3906 40.8597 19.8229C41.4951 20.8906 41.7086 22.0156 40.8597 23.0885C40.0055 24.1041 38.8909 24.5364 37.6149 24.2135C35.5888 23.7291 33.8336 22.6041 32.3961 21.1041C30.4847 19.125 29.3649 16.6614 28.1409 14.302C27.9274 13.927 27.8753 13.5 27.292 13.5C23.9899 13.5 20.693 13.5 17.3961 13.5C17.2868 14.1406 17.7659 14.1979 17.9795 14.4114C19.2034 15.427 20.4274 16.3906 21.2763 17.7864C21.5472 18.2135 21.8128 18.6979 22.0211 19.177C22.9274 21.4791 21.6513 23.25 19.1513 23.0885C17.7138 22.9791 16.542 22.3385 15.5316 21.3229C13.7243 19.5 12.5524 17.25 11.3284 15C11.1149 14.625 11.1149 14.0885 11.0107 13.552C8.56281 13.552 6.06281 13.552 3.61489 13.552C2.92218 13.552 2.22947 13.552 1.53677 13.4479C0.901348 13.3906 0.156558 13.2291 0.20864 12.427C0.260723 11.5729 1.00551 11.625 1.64614 11.625C4.35968 11.7864 7.12531 11.625 9.83885 11.625C10.9013 11.625 11.4899 11.4114 11.9691 10.2864C13.3493 7.22912 15.7451 5.14058 18.5107 3.47912C19.6305 2.83849 20.8545 2.51558 22.1305 2.62495C23.7243 2.78641 24.5784 3.96349 24.1514 5.51558C23.7816 6.96349 22.8232 8.03641 21.7034 8.94787C20.7972 9.74995 19.6826 10.2864 18.6722 10.927C18.9378 11.4635 19.3649 11.25 19.6826 11.25C22.1826 11.25 24.6305 11.25 27.1305 11.302C27.9847 11.302 28.568 11.0364 29.1514 10.3906C30.6409 8.62495 32.0784 6.74995 33.943 5.35412C35.3232 4.33849 36.7086 3.37495 38.3024 2.83849C39.5264 2.46349 40.8076 2.35412 41.9743 2.94787C43.4639 3.64058 43.8388 4.97912 42.9326 6.37495C42.2972 7.33849 41.443 8.03641 40.4326 8.51558C39.1045 9.21349 37.667 9.85412 36.3336 10.5C36.0159 10.6614 35.6461 10.6614 35.4326 11.0364C35.7503 11.3541 36.1253 11.25 36.443 11.1979C40.1149 11.1406 43.8388 11.0885 47.5107 11.0885C48.4691 11.0885 49.0003 10.7135 49.5316 9.91141C51.3909 7.07287 53.6826 4.71349 56.818 3.32287C58.0993 2.78641 59.3753 2.35412 60.8128 2.78641C62.9378 3.47912 63.4691 5.03641 62.193 6.80204C61.6097 7.66141 60.7555 8.19787 59.9066 8.72912C58.9482 9.32287 57.9378 9.91141 56.8753 10.5C57.1409 10.9791 57.5628 10.7656 57.8857 10.7656C61.3961 10.7656 64.9586 10.7656 68.4743 10.7656C69.1618 10.7656 69.6409 10.6614 70.1774 10.0156C72.1982 7.44787 74.5368 5.14058 77.3597 3.37495C78.9013 2.41141 80.4951 1.87495 82.2503 1.92704C83.1045 1.97912 83.9013 2.19787 84.6461 2.62495C85.8701 3.42703 86.1357 4.71349 85.2868 5.89058C84.4899 7.01558 83.4222 7.76558 82.2503 8.41141C81.0836 8.99995 79.8597 9.53641 78.6878 10.125C78.4743 10.2291 78.2086 10.2864 78.1045 10.6041C78.318 10.927 78.6357 10.8229 78.9534 10.8229C83.6357 10.8229 88.318 10.8229 93.0003 10.8229C94.2243 10.8229 94.2243 10.7656 94.7555 9.53641C96.2451 5.99995 98.4274 3.16141 102.151 1.71349C103.375 1.22912 104.599 1.07287 105.875 1.28641C108.433 1.87495 109.334 4.17704 107.74 6.16141C106.516 7.71349 104.974 8.94787 103.375 10.0729C103.11 10.2864 102.683 10.3385 102.631 10.7656C102.948 11.0364 103.323 10.927 103.693 10.927C106.834 10.927 110.026 10.875 113.167 10.927C114.282 10.9791 114.87 10.552 115.292 9.53641C116.146 7.55204 117.261 5.78641 118.75 4.22912C120.188 2.72912 121.839 1.71349 123.86 1.22912C124.5 1.07287 125.084 1.01558 125.724 1.17704C128.063 1.71349 128.969 3.91141 127.636 5.94787C126.735 7.33849 125.459 8.35412 124.021 9.21349C123.276 9.64058 122.532 10.125 121.729 10.552C122.157 10.9791 122.584 10.8229 122.901 10.8229C127.532 10.8229 132.162 10.8229 136.787 10.875C137.641 10.875 138.12 10.7135 138.49 9.74995C140.141 5.72912 143.016 2.78641 146.953 0.91141C148.229 0.265577 149.61 -4.83256e-05 151.099 0.374952C152.86 0.854117 153.547 2.19787 152.964 3.91141C152.698 4.60412 152.271 5.19787 151.792 5.78641C150.354 7.39058 148.657 8.62495 146.792 9.64058C146.209 9.96349 145.516 10.177 144.823 10.875C145.407 10.875 145.834 10.875 146.209 10.875C151.422 10.875 156.636 10.875 161.849 10.927C162.86 10.927 163.177 10.552 163.604 9.69787C165.412 6.16141 167.969 3.32287 171.641 1.71349C172.172 1.49995 172.756 1.33849 173.344 1.39058C175.417 1.49995 176.641 3.47912 175.735 5.35412C175.151 6.58849 174.245 7.55204 173.183 8.30204C172.599 8.72912 171.959 9.16141 171.318 9.53641C170.683 9.91141 170.042 10.2291 169.407 10.6041C169.459 11.0364 169.776 10.927 169.99 10.9791C173.875 11.0885 177.756 11.1406 181.693 11.25C182.547 11.302 182.974 11.0364 183.24 10.177C184.141 7.33849 185.896 5.03641 188.136 3.05204C189.037 2.24995 189.995 1.66141 191.167 1.44787C192.443 1.22912 193.615 1.49995 194.412 2.57287C195.261 3.69787 194.995 4.87495 194.308 5.99995C193.401 7.39058 192.229 8.51558 190.849 9.42704C190.047 9.96349 189.25 10.4479 188.453 10.927C188.506 11.3541 188.823 11.25 189.089 11.25C192.125 11.302 195.209 11.302 198.24 11.3541C199.256 11.3541 199.839 11.1406 200.318 10.177C201.698 7.60412 203.459 5.41141 206.011 3.91141C207.183 3.21349 208.459 2.67703 209.839 2.46349C210.427 2.35412 211.011 2.30204 211.542 2.41141C212.714 2.57287 213.834 2.83849 214.365 4.12495C214.896 5.35412 214.151 6.26558 213.459 7.12495C212.875 7.87495 212.183 8.51558 211.334 9.05204C210.318 9.69787 209.308 10.3385 208.141 11.0885C208.62 11.3541 209.042 11.302 209.417 11.302C212.714 11.25 216.068 11.1979 219.365 11.1979C220.375 11.1979 220.907 10.8229 221.334 9.96349C222.558 7.66141 224.151 5.62495 226.334 4.07287C227.667 3.16141 229.047 2.46349 230.646 2.14058C231.282 2.03641 231.922 1.97912 232.506 2.14058C234.209 2.57287 235.006 3.91141 234.532 5.62495C234.209 6.69787 233.516 7.49995 232.771 8.19787C231.922 8.99995 230.912 9.58849 229.901 10.177C229.526 10.3906 229.157 10.5 228.782 11.0885C229.313 11.0885 229.74 11.1406 230.115 11.1406C232.881 11.25 235.698 11.25 238.464 11.4114C241.021 11.5156 243.573 11.25 246.183 11.25C246.875 11.25 247.193 10.8229 247.511 10.3385C248.308 8.83849 249.266 7.44787 250.386 6.16141C252.089 4.17704 254 2.46349 256.292 1.22912C257.25 0.697869 258.313 0.322868 259.427 0.374952C261.24 0.479117 262.302 1.97912 261.771 3.69787C261.344 5.14058 260.438 6.32287 259.323 7.33849C258.151 8.35412 256.875 9.21349 255.599 9.96349C255.172 10.2291 254.641 10.3385 254.375 10.875C254.589 11.1979 254.854 11.0885 255.12 11.0885C257.938 11.1406 260.813 11.1406 263.631 11.25C264.537 11.302 264.912 10.9791 265.177 10.125C266.453 5.99995 269.115 3.05204 272.995 1.28641C274.276 0.697869 275.604 0.374952 276.99 0.749952C278.901 1.22912 279.703 2.83849 278.901 4.66141C278.37 5.83849 277.464 6.74995 276.453 7.55204C275.073 8.72912 273.532 9.58849 271.933 10.4479C271.563 10.6614 271.136 10.7135 270.922 11.0885C271.136 11.4635 271.453 11.302 271.771 11.302C275.073 11.3541 278.422 11.3541 281.724 11.4635C282.735 11.5156 283.162 11.1406 283.584 10.2291C284.86 7.60412 286.62 5.41141 288.959 3.69787C290.448 2.62495 292.047 1.87495 293.959 2.03641C294.547 2.08849 295.131 2.19787 295.61 2.46349C296.782 3.10412 297.151 4.12495 296.729 5.41141C296.459 6.21349 295.927 6.85412 295.344 7.49995C293.907 8.94787 292.256 10.0156 290.5 10.9791C290.662 11.4635 291.032 11.302 291.302 11.302C294.651 11.302 298.058 11.1979 301.412 11.25C302.313 11.25 302.688 10.927 303.006 10.125C304.016 7.76558 305.506 5.72912 307.37 3.96349C309.282 2.14058 311.573 1.17704 314.177 1.07287C314.709 1.07287 315.245 1.07287 315.719 1.33849C316.573 1.76558 316.943 2.46349 316.787 3.42704C316.677 4.12495 316.308 4.71349 315.881 5.24995C314.443 7.12495 312.636 8.57287 310.615 9.74995C310.136 10.0729 309.604 10.3385 309.125 10.6041C309.229 11.0885 309.604 10.927 309.87 10.927C314.5 10.927 319.125 10.875 323.756 10.875C324.5 10.875 324.875 10.7135 325.141 9.96349C326.203 7.07287 328.276 4.97912 330.724 3.26558C332.058 2.30204 333.547 1.82287 335.193 2.03641C337.641 2.35412 338.495 4.28641 337.058 6.26558C336.099 7.60412 334.714 8.51558 333.282 9.37495C332.589 9.80203 331.896 10.177 331.256 10.552C331.365 11.0364 331.683 10.875 331.896 10.875C335.782 10.875 339.719 10.875 343.599 10.927C344.453 10.927 344.823 10.7135 345.146 9.80204C346.261 6.64058 348.177 4.12495 350.995 2.35412C352.276 1.55204 353.657 1.01558 355.146 1.12495C357.438 1.22912 358.339 2.83849 357.224 4.82287C356.266 6.42704 354.933 7.71349 353.5 8.89058C352.698 9.47912 351.953 10.0729 351.157 10.7135C351.584 11.0885 351.953 10.927 352.276 10.927C357.115 10.927 361.959 10.927 366.797 10.927C367.703 10.927 368.131 10.6041 368.558 9.80204C370.844 5.67704 374.25 3.05203 378.933 2.24995C379.464 2.14058 379.995 2.14058 380.526 2.24995C382.282 2.57287 382.87 3.80204 382.016 5.41141C381.646 6.10412 381.058 6.69787 380.474 7.22912C379.198 8.35412 377.761 9.21349 376.271 10.0729C375.953 10.2291 375.578 10.3385 375.417 10.7135C375.683 11.0364 376.006 10.927 376.323 10.927C379.995 10.9791 383.719 10.9791 387.391 11.0364C388.188 11.0364 388.667 10.8229 389.146 10.0729C391.011 7.22912 393.563 5.08849 396.594 3.64058C397.818 3.05204 399.094 2.83849 400.427 3.32287C402.073 3.96349 402.61 5.51558 401.651 7.01558C401.011 7.97912 400.105 8.62495 399.151 9.16141C398.193 9.69787 397.235 10.177 396.167 10.7135C396.542 11.0885 396.912 10.9791 397.235 10.9791C401.063 10.9791 404.948 10.927 408.782 10.927C409.631 10.927 409.948 10.6041 410.427 9.91141C412.823 6.16141 416.016 3.47912 420.433 2.46349C421.495 2.19787 422.558 2.41141 423.464 2.99995C424.953 3.85412 425.167 5.46349 423.995 6.74995C423.302 7.55203 422.401 8.14058 421.495 8.62495C420.802 8.99995 420.058 9.32287 419.365 9.64058C418.677 9.96349 417.933 10.2291 417.188 10.552C417.344 11.0885 417.719 10.875 417.985 10.875C422.667 10.927 427.349 10.875 432.032 11.1406C432.881 11.1979 433.625 11.1979 433.787 10.0729C433.787 9.96349 433.891 9.85412 433.948 9.80204C437.136 5.99995 440.756 2.99995 446.131 3.21349C446.766 3.21349 447.407 3.37495 447.99 3.58849C449.537 4.22912 449.959 5.72912 448.896 7.07287C448.365 7.82287 447.568 8.30204 446.823 8.72912C445.599 9.42704 444.266 9.96349 442.938 10.4479C442.511 10.6041 442.089 10.7656 441.552 10.927C442.089 11.302 442.511 11.1979 442.886 11.1979C447.516 11.1979 452.141 11.1979 456.771 11.1979C457.568 11.1979 458.047 10.9791 458.526 10.2291C460.23 7.60412 462.516 5.57287 465.177 4.01558C466.453 3.26558 467.839 2.72912 469.381 2.83849C470.5 2.89058 471.459 3.32287 471.933 4.39058C472.412 5.46349 471.99 6.37495 471.297 7.17704C470.657 8.03641 469.808 8.67703 468.901 9.21349C467.943 9.80203 467.042 10.3385 465.974 10.9791C466.453 11.4114 466.985 11.302 467.464 11.3541C470.87 11.4635 474.328 11.5729 477.735 11.4635C478.427 11.4635 479.172 11.1979 479.386 12.2135C479.49 12.8541 478.959 13.2864 477.787 13.2864C475.021 13.3385 472.203 13.3385 469.433 13.3385C467.839 13.3385 466.297 13.3385 464.646 13.3385C464.75 13.927 465.23 14.1406 465.552 14.4114C466.828 15.5885 468.105 16.7656 469.063 18.2656C469.808 19.4479 470.177 20.677 469.756 22.0156C469.219 23.677 467.839 24.6406 466.136 24.375C465.016 24.2135 464.063 23.677 463.209 22.875C461.188 20.9479 460.125 18.4791 459.589 15.802C459.433 15 459.589 13.927 458.953 13.4479C458.313 12.9114 457.302 13.2864 456.506 13.2864C450.974 13.2864 445.438 13.3906 439.907 13.2291C439.693 13.2291 439.48 13.2864 439.266 13.2864C439.214 13.875 439.693 14.0364 439.959 14.302C441.339 15.6979 442.62 17.1406 443.521 18.9114C444.11 20.0885 444.48 21.2656 444.375 22.552C444.266 23.8385 443.521 24.5364 442.193 24.5364C441.448 24.5364 440.756 24.2656 440.12 23.8906C438.042 22.7135 436.448 21.052 435.542 18.802C434.901 17.25 434.37 15.6406 433.948 13.9791C433.787 13.3906 433.625 13.0156 432.933 13.0156C427.188 13.0156 421.443 12.6979 415.698 12.802C415.589 12.802 415.537 12.9114 415.375 13.0156C415.537 13.6041 416.068 13.875 416.443 14.302C417.875 15.802 419.209 17.3541 420.11 19.2864C420.537 20.1406 420.855 21.052 420.912 22.0156C420.964 23.0885 420.698 24.052 419.74 24.6406C418.834 25.177 417.875 24.9635 417.026 24.427C415.162 23.25 413.782 21.5885 412.771 19.6041C411.761 17.7291 411.016 15.75 410.271 13.7656C410.006 13.125 409.735 12.802 409.047 12.8541C404.308 12.9635 399.573 13.0156 394.839 13.125C394.787 13.125 394.677 13.2291 394.521 13.3385C395.157 13.927 395.797 14.5156 396.438 15.1614C397.605 16.3385 398.563 17.625 398.938 19.2864C399.308 20.8385 398.881 22.125 397.714 23.1406C396.49 24.1614 395.157 24 393.881 23.3541C393.084 22.9791 392.5 22.3906 391.964 21.75C390.849 20.302 390.052 18.6979 389.412 17.0364C388.985 15.9635 388.615 14.8385 388.24 13.7135C388.084 13.2291 387.87 13.0156 387.339 13.0156C383.078 12.9635 378.823 12.75 374.568 12.8541C374.355 13.3906 374.834 13.552 375.047 13.7656C376.162 14.8385 377.12 16.0156 377.922 17.302C378.344 18.052 378.667 18.8541 378.667 19.7135C378.771 22.177 376.802 23.4114 374.62 22.2864C373.714 21.802 373.026 21.052 372.438 20.25C371 18.2656 370.099 15.9635 369.193 13.7135C368.875 12.9635 368.558 12.75 367.865 12.75C362.011 12.75 356.157 12.75 350.36 12.75C350.198 13.3385 350.677 13.3906 350.943 13.6041C352.011 14.4114 353.021 15.2135 353.87 16.2864C354.667 17.25 355.198 18.3229 355.198 19.6041C355.198 21.1614 354.245 22.177 352.698 22.3385C351.318 22.4479 350.25 21.8541 349.297 20.9479C348.125 19.8229 347.328 18.4791 346.74 16.9791C346.313 15.9114 345.891 14.8385 345.516 13.7135C345.302 13.0729 344.933 12.802 344.24 12.802C339.823 12.802 335.407 12.802 330.834 12.802C331.099 13.4479 331.631 13.7135 332.058 14.0364C333.334 15.052 334.448 16.2864 335.354 17.625C335.938 18.4791 336.313 19.3906 336.417 20.4114C336.74 22.7135 334.985 24.427 332.693 24.1614C331.631 24 330.672 23.5156 329.823 22.875C328.542 21.9114 327.589 20.677 326.844 19.2291C325.886 17.4114 324.979 15.5364 324.235 13.6041C324.021 13.0156 323.756 12.75 323.115 12.75C318.276 12.75 313.433 12.802 308.594 13.0156C308.537 13.0156 308.433 13.125 308.271 13.2291C308.646 13.6041 309.016 13.927 309.391 14.25C310.828 15.5364 312.052 16.9791 313.006 18.6406C313.485 19.4479 313.808 20.25 313.912 21.1614C314.177 23.3541 312.636 24.8541 310.453 24.427C309.229 24.1614 308.219 23.5156 307.313 22.6614C305.719 21.1041 304.709 19.2291 303.912 17.1406C303.485 16.0156 303.006 14.8906 302.631 13.7135C302.422 13.177 302.099 12.9635 301.568 13.0156C296.782 13.125 291.99 13.2291 287.203 13.3385C287.151 13.3385 287.151 13.3906 286.99 13.5C287.203 13.927 287.631 14.0885 288 14.4114C289.276 15.427 290.448 16.6041 291.302 18C291.99 19.125 292.313 20.302 292.151 21.6406C291.938 23.302 290.558 24.1041 289.063 23.4635C288.318 23.1406 287.735 22.6041 287.203 22.0156C285.604 20.25 284.328 18.375 283.532 16.125C283.318 15.4791 283 14.8385 282.839 14.1979C282.625 13.5 282.256 13.2864 281.563 13.3385C280.177 13.3906 278.849 13.3385 277.464 13.3385C275.495 13.3385 273.584 13.2864 271.615 13.2864C271.188 13.2864 270.761 13.125 270.339 13.5C270.495 13.927 270.922 14.0364 271.24 14.302C272.198 15.052 273.104 15.8541 273.901 16.7656C274.594 17.5729 275.125 18.4791 275.339 19.552C275.818 21.75 274.433 23.1979 272.25 22.9791C271.292 22.875 270.443 22.4479 269.646 21.9114C267.782 20.5729 266.401 18.9114 265.657 16.7135C265.334 15.75 264.964 14.8385 264.589 13.875C264.375 13.3385 264.006 13.0729 263.365 13.0729C260.438 13.0729 257.459 13.0729 254.537 13.0156C254.479 13.0156 254.375 13.125 254.266 13.177C254.537 13.6041 255.011 13.7135 255.438 13.927C256.927 14.7291 258.261 15.75 259.427 16.9791C260.282 17.8906 260.917 18.9114 261.292 20.0885C261.985 22.3385 260.651 24.1614 258.313 24.2135C257.302 24.2135 256.448 23.8385 255.651 23.3541C252.568 21.4791 250.063 19.0156 248.631 15.6406C248.256 14.7864 248.094 13.6041 247.245 13.2291C246.396 12.802 245.276 13.125 244.266 13.177C241.125 13.3906 237.933 13.3385 234.797 13.177C231.761 13.0729 228.677 13.177 225.589 13.177C225.433 13.552 225.912 13.6614 226.177 13.875C227.933 15.427 229.474 17.1406 230.537 19.2864C231.229 20.7291 231.547 22.177 231.068 23.7291C230.381 25.9791 228.568 26.677 226.657 25.3906C225.75 24.802 225.058 24 224.474 23.0885C222.662 20.302 221.229 17.3541 220.693 14.0885C220.537 13.177 220.162 13.0156 219.365 13.0156C214.469 13.125 209.573 13.2291 204.683 13.2864C204.521 13.2864 204.36 13.3385 204.146 13.3906C204.203 13.9791 204.735 14.25 205.052 14.625C206.542 16.3385 207.766 18.2656 208.407 20.4635C208.724 21.5364 208.828 22.6614 208.62 23.7864C208.193 25.927 206.115 27 204.146 26.0364C202.979 25.4479 202.125 24.5364 201.542 23.3541C200.266 21 199.677 18.427 199.521 15.75C199.464 15.2135 199.464 14.677 199.521 14.1406C199.573 13.4479 199.198 13.177 198.563 13.2291C198.453 13.2291 198.349 13.2291 198.24 13.2291C195.104 13.2291 191.912 13.2291 188.771 13.2291C188.506 13.2291 188.24 13.177 187.974 13.4479C188.136 13.8229 188.506 14.0364 188.771 14.302C190.313 15.75 191.698 17.3541 192.604 19.2864C192.974 19.9791 193.24 20.7291 193.401 21.5364C193.667 23.0364 193.136 24.3229 192.016 25.0156C190.849 25.7135 189.412 25.5 188.24 24.375C186.964 23.1406 186.006 21.6979 185.261 20.0885C184.464 18.3229 183.875 16.3906 183.771 14.4635C183.662 13.0729 183.662 13.0729 182.172 13.0156C178.61 12.9635 174.99 12.9114 171.427 12.8541C170.787 12.8541 170.203 12.6979 169.407 13.0156C169.828 13.4479 170.203 13.875 170.573 14.25C171.479 15.1614 172.276 16.125 172.756 17.3541C173.396 18.9114 173.078 20.5729 171.907 21.5885C170.896 22.5 169.193 22.4479 167.808 21.5364C166.479 20.677 165.683 19.3385 165.042 17.9479C164.349 16.4479 163.714 14.9479 163.073 13.4479C162.86 12.8541 162.49 12.6406 161.901 12.6406C156.052 12.6406 150.198 12.6406 144.292 12.6406C144.506 13.3385 145.037 13.552 145.464 13.875C147.11 15.2135 148.495 16.7656 149.558 18.6406C149.985 19.3906 150.302 20.1406 150.354 21.052C150.464 22.875 149.453 24 147.641 24C145.782 24 144.453 23.0364 143.282 21.75C141.099 19.3385 139.5 16.552 138.224 13.552C137.959 12.9114 137.641 12.5885 136.844 12.5885C131.36 12.6406 125.881 12.5885 120.401 12.5885C120.506 12.9114 120.297 12.8541 120.032 13.2291ZM96.2972 10.927C100.344 9.91141 103.427 8.03641 105.985 5.14058C106.25 4.82287 106.568 4.49995 106.407 4.01558C106.25 3.47912 105.719 3.42704 105.24 3.32287C104.761 3.26558 104.282 3.32287 103.854 3.42704C102.313 3.80204 100.875 4.55203 99.7034 5.62495C98.2138 7.07287 97.2034 8.78641 96.2972 10.927ZM326.631 13.0729C326.469 13.177 326.469 13.3906 326.521 13.5C327.427 15.6979 328.334 17.8906 329.714 19.8229C330.459 20.8906 331.469 21.802 332.802 22.177C333.969 22.5 334.662 22.0156 334.558 20.7291C334.506 19.7135 333.969 18.9635 333.386 18.1614C331.735 15.9635 329.558 14.4635 327.214 13.0729C327 13.0729 326.844 12.9635 326.631 13.0729ZM140.459 9.96349C141.365 9.96349 142.006 9.58849 142.693 9.32287C145.354 8.24995 147.912 7.01558 149.881 4.87495C150.464 4.22912 151.526 3.53641 150.891 2.67704C150.302 1.82287 149.131 2.30203 148.282 2.62495C146.74 3.21349 145.354 4.07287 144.131 5.19787C142.693 6.53641 141.365 7.97912 140.459 9.96349ZM250.438 14.0364C251.714 17.7864 254.214 20.1406 257.25 21.9635C257.516 22.125 257.834 22.2291 258.099 22.3385C258.578 22.5 259.058 22.3906 259.427 22.0729C259.854 21.6979 259.75 21.2135 259.589 20.7864C259.271 19.927 258.792 19.177 258.151 18.5364C256.131 16.2864 253.521 15.1041 250.438 14.0364ZM267.146 10.5C270.604 8.94787 273.797 7.55204 276.349 5.03641C276.563 4.82287 276.776 4.55204 276.933 4.28641C277.573 3.26558 277.308 2.72912 276.084 2.67704C275.552 2.67704 275.073 2.78641 274.542 2.94787C273.157 3.42704 271.881 4.12495 270.761 5.14058C269.167 6.53641 267.891 8.08849 267.146 10.5ZM202.177 14.4635C202.021 14.5156 201.912 14.5729 201.756 14.625C201.86 15.5885 201.912 16.6041 202.021 17.5729C202.287 19.552 202.87 21.375 203.881 23.0885C204.573 24.2135 205.584 24.802 206.276 24.5364C207.021 24.2656 207.287 23.25 206.969 21.8541C206.276 18.75 204.412 16.4479 202.177 14.4635ZM249.854 10.5C252.99 9.32287 255.917 7.82287 258.365 5.57287C258.683 5.24995 259.006 4.87495 259.271 4.49995C259.641 3.96349 260.282 3.32287 259.802 2.67704C259.271 1.97912 258.526 2.51558 257.938 2.78641C254.375 4.44787 251.823 7.12495 249.854 10.5ZM202.177 10.927C202.339 10.9791 202.448 11.0364 202.5 11.0364C205.479 10.177 208.349 8.99995 210.797 7.01558C211.276 6.64058 211.756 6.16141 212.131 5.67704C212.662 4.97912 212.5 4.66141 211.651 4.55204C210.375 4.39058 209.151 4.66141 207.979 5.19787C205.427 6.42704 203.511 8.41141 202.177 10.927ZM30.2711 13.9791C31.5472 16.0156 32.3441 18.2135 34.0993 19.8229C35.2191 20.8906 36.4951 21.75 37.9847 22.125C38.4118 22.2291 38.943 22.2864 39.318 21.8541C39.6878 21.375 39.3701 20.9479 39.1045 20.5729C38.8909 20.25 38.6774 19.9791 38.4639 19.7135C36.4951 17.5156 34.1566 15.75 31.5993 14.1979C31.2816 13.9791 30.9638 13.7135 30.2711 13.9791ZM117.209 10.2291C119.818 9.42704 122.209 8.19787 124.339 6.58849C124.87 6.21349 125.349 5.62495 125.776 5.14058C126.094 4.76558 126.308 4.33849 126.094 3.85412C125.828 3.26558 125.297 3.26558 124.766 3.26558C124.021 3.26558 123.328 3.47912 122.636 3.80204C119.974 5.14058 118.381 7.49995 117.209 10.2291ZM71.1305 13.2291C71.6097 14.5156 72.1461 15.8541 72.6201 17.1406C73.1566 18.5364 73.9013 19.8229 74.9638 20.8906C75.4951 21.4791 76.1357 21.9635 76.8805 22.2864C77.8388 22.7135 78.2607 22.3906 78.1045 21.3229C77.9951 20.625 77.7816 19.9791 77.4638 19.3385C76.2399 16.927 74.4326 15.052 72.3024 13.4479C72.0368 13.2864 71.7191 13.0156 71.1305 13.2291ZM140.568 13.125C141.74 16.177 143.334 18.9114 145.62 21.2135C146.151 21.75 146.792 22.125 147.537 22.2291C148.443 22.3906 148.813 21.9635 148.599 21.052C148.386 20.302 147.964 19.6041 147.537 18.9635C145.729 16.3906 143.172 14.7291 140.568 13.125ZM390.584 13.552C391.276 16.177 392.073 18.6979 393.828 20.7864C394.735 21.8541 395.849 22.177 396.594 21.6406C397.287 21.1614 397.448 19.927 396.703 18.75C395.266 16.2864 393.136 14.677 390.584 13.552ZM223.354 14.4635C223.729 17.5729 225.167 20.1979 226.922 22.6614C227.401 23.3541 227.985 24.2656 229.047 23.9479C229.578 23.7864 229.74 22.2864 229.474 21.2656C229.422 21.1614 229.422 21.052 229.37 21C228.089 18.1614 226.016 16.0729 223.354 14.4635ZM223.141 10.7656C223.516 11.0885 223.782 11.0364 223.995 10.927C225.912 10.0156 227.823 9.26558 229.636 8.14058C230.485 7.60412 231.339 7.07287 231.974 6.26558C232.401 5.78641 232.933 5.24995 232.615 4.60412C232.292 3.91141 231.495 4.12495 230.912 4.28641C227.24 5.14058 225.006 7.66141 223.141 10.7656ZM461.453 13.9791C461.719 16.9791 462.516 19.4479 464.485 21.427C465.073 22.0729 465.761 22.5 466.667 22.5C467.464 22.5 467.787 22.177 467.891 21.375C467.995 20.5156 467.677 19.8229 467.198 19.177C465.657 17.1979 463.792 15.5364 461.453 13.9791ZM305.401 13.8229C305.292 13.875 305.188 13.9791 305.078 14.0364C305.558 15.3229 306.089 16.6614 306.568 17.9479C306.891 18.75 307.313 19.4479 307.849 20.1406C308.594 21.1614 309.443 22.0729 310.719 22.5C311.787 22.875 312.209 22.5 312.052 21.375C311.995 21.1041 311.943 20.8385 311.839 20.625C310.453 17.677 308.328 15.375 305.401 13.8229ZM72.943 10.2864C73.2607 10.4479 73.5263 10.3385 73.8441 10.2291C76.5576 9.21349 79.167 8.03641 81.7191 6.64058C82.2503 6.32287 82.7295 5.89058 83.2086 5.51558C83.4222 5.30204 83.7451 5.08849 83.6357 4.71349C83.5316 4.28641 83.1045 4.28641 82.7295 4.22912C81.5628 4.07287 80.3909 4.17703 79.3805 4.71349C76.9847 5.99995 74.8597 7.60412 73.0993 9.69787C72.943 9.85412 72.8336 10.0156 72.943 10.2864ZM285.818 10.552C289.063 9.64058 292.047 8.30204 294.334 5.78641C294.49 5.57287 294.651 5.35412 294.813 5.14058C295.078 4.66141 294.969 4.39058 294.438 4.17704C293.479 3.85412 292.578 4.12495 291.672 4.55204C289.011 5.78641 287.203 7.92704 285.818 10.552ZM447.568 5.83849C444.266 4.12495 438.308 7.17703 435.912 10.7135C439.959 9.32287 444.11 8.67703 447.568 5.83849ZM305.188 9.96349C309.016 9.10412 314.073 5.41141 314.604 3.10412C310.026 3.26558 307.526 6.21349 305.188 9.96349ZM347.006 10.6614C349.933 9.21349 352.485 7.55203 354.511 5.24995C354.99 4.71349 355.891 4.07287 355.521 3.47912C354.99 2.67704 353.974 3.26558 353.23 3.53641C350.995 4.39058 349.401 6.05203 348.125 8.08849C347.698 8.83849 347.219 9.53641 347.006 10.6614ZM51.2347 13.3906C52.0836 15 52.9378 16.5 54.0003 17.8906C54.7972 19.0156 55.8076 19.927 56.9274 20.7291C57.3545 21.052 57.8336 21.2656 58.3076 21.4791C58.6826 21.6406 59.1618 21.75 59.4795 21.375C59.7451 21.052 59.5888 20.625 59.4274 20.302C59.1618 19.8229 58.8441 19.2864 58.4691 18.8541C56.7138 16.7135 54.4795 15.1614 52.2451 13.552C52.0316 13.3906 51.7659 13.125 51.2347 13.3906ZM436.287 14.1979C436.662 16.177 437.136 18.052 438.256 19.6614C439.105 20.8906 440.172 21.9635 441.61 22.4479C442.355 22.7135 442.563 22.552 442.407 21.75C442.297 21.2656 442.193 20.8385 441.98 20.4114C440.756 17.7291 438.787 15.75 436.287 14.1979ZM186.375 15.1614C186.537 18.052 187.599 20.5729 189.516 22.7135C189.943 23.1979 190.422 23.8385 191.219 23.5156C191.75 23.302 191.86 22.552 191.594 21.5364C191.594 21.4791 191.537 21.427 191.537 21.375C190.526 18.6979 188.719 16.7656 186.375 15.1614ZM380.578 4.39058C376.698 4.12495 371.375 7.55204 370.631 10.6614C374.193 9.05204 377.651 7.55204 380.578 4.39058ZM460.709 10.875C462.36 10.6041 463.74 9.91141 465.177 9.26558C466.667 8.57287 468.105 7.82287 469.276 6.69787C469.646 6.37495 470.287 5.94787 470.021 5.41141C469.756 4.76558 469.011 4.97912 468.474 5.08849C468.209 5.14058 467.943 5.14058 467.73 5.24995C464.75 6.37495 462.516 8.41141 460.709 10.875ZM267.198 13.9791C267.729 16.3906 268.578 18.2656 270.229 19.7135C270.922 20.302 271.667 20.8385 272.516 21.052C273.422 21.3229 273.849 20.8385 273.636 19.927C273.474 19.2291 273.104 18.6406 272.677 18.1041C271.292 16.3906 269.433 15.2135 267.198 13.9791ZM13.6149 13.6041C13.2972 13.9791 13.2972 14.25 13.3493 14.4114C14.3597 16.3385 15.3701 18.2135 16.917 19.8229C17.5524 20.4635 18.3545 20.8906 19.2555 21C20.1618 21.1041 20.4274 20.677 20.1618 19.875C19.8961 19.177 19.5211 18.5364 19.042 18C17.5003 16.2291 15.5316 15 13.6149 13.6041ZM413.25 9.58849C416.282 8.83849 419.313 7.92704 421.922 6.10412C422.136 5.94787 422.349 5.78641 422.506 5.57287C422.881 5.14058 422.719 4.76558 422.24 4.60412C421.547 4.39058 420.75 4.44787 420.058 4.66141C417.24 5.51558 415.058 7.22912 413.25 9.58849ZM165.573 13.2291C166.318 15.1041 166.849 16.927 167.86 18.5885C168.339 19.3906 168.979 20.1406 169.938 20.4635C170.683 20.677 171.162 20.4114 171.375 19.6614C171.532 19.177 171.427 18.75 171.162 18.2656C169.886 15.9114 167.917 14.3541 165.573 13.2291ZM13.9899 10.875C16.3857 9.91141 18.6722 8.89058 20.6409 7.33849C21.068 6.96349 21.4378 6.53641 21.7555 6.05204C22.0211 5.67704 22.4482 5.24995 22.0784 4.82287C21.8128 4.44787 21.2763 4.60412 20.9066 4.76558C17.6618 5.72912 15.5316 7.97912 13.9899 10.875ZM165.787 9.85412C168.448 8.89058 171.052 7.82287 173.078 5.78641C173.396 5.46349 173.714 5.03641 173.875 4.60412C174.193 3.96349 173.823 3.42704 173.131 3.47912C172.808 3.47912 172.49 3.58849 172.224 3.69787C169.349 4.97912 167.328 7.17704 165.787 9.85412ZM185.422 10.0729C187.334 9.42704 189.037 8.41141 190.636 7.22912C191.381 6.69787 191.964 5.99995 192.495 5.30204C192.813 4.87495 193.188 4.39058 192.813 3.85412C192.495 3.42704 191.964 3.53641 191.485 3.58849C191.219 3.64058 190.953 3.69787 190.74 3.80204C188.188 5.24995 186.589 7.49995 185.422 10.0729ZM412.662 13.7135C413.62 16.4479 414.474 19.2864 416.547 21.427C417.026 21.9114 417.506 22.4479 418.089 22.7656C418.677 23.0885 418.995 22.927 418.943 22.2291C418.891 21.1614 418.412 20.1979 417.875 19.2864C416.495 17.0364 414.631 15.375 412.662 13.7135ZM327.532 9.80204C327.693 10.0729 327.907 10.0156 328.011 9.96349C330.193 8.94787 332.375 7.87495 334.344 6.42704C334.823 6.05204 335.302 5.62495 335.672 5.03641C335.995 4.55204 335.834 4.22912 335.25 4.12495C334.183 3.85412 333.224 4.17703 332.375 4.71349C330.62 5.78641 329.078 7.17704 327.907 8.94787C327.745 9.21349 327.375 9.47912 327.532 9.80204ZM52.0316 10.2291C55.0107 9.47912 57.7243 8.19787 60.1722 6.26558C60.3336 6.16141 60.4899 5.94787 60.5993 5.78641C60.917 5.35412 60.8649 4.97912 60.2763 4.87495C59.693 4.76558 59.1097 4.76558 58.5784 4.92704C55.7555 5.94787 53.5732 7.66141 52.0316 10.2291ZM32.3441 9.74995C35.1097 8.99995 37.667 7.92704 40.1149 6.47912C40.3284 6.32287 40.5368 6.16141 40.7503 5.99995C41.0159 5.72912 41.4951 5.46349 41.2816 4.97912C41.0732 4.55204 40.5941 4.60412 40.167 4.60412C40.0055 4.60412 39.8493 4.60412 39.6878 4.66141C36.6045 5.46349 34.3128 7.39058 32.3441 9.74995ZM391.433 10.3385C393.881 9.53641 396.224 8.62495 398.407 7.39058C398.99 7.07287 399.573 6.64058 399.948 6.10412C400.214 5.72912 400.105 5.41141 399.625 5.30204C398.828 5.14058 398.084 5.24995 397.339 5.57287C395 6.58849 393.084 8.30203 391.433 10.3385ZM117.422 14.0364C118.328 16.8229 119.443 19.0156 121.464 20.7291C121.729 20.9479 122.052 21.2135 122.422 21.2656C122.953 21.375 123.276 21.1614 123.219 20.625C123.219 19.9791 122.901 19.3906 122.636 18.8541C121.412 16.7656 119.709 15.375 117.422 14.0364ZM347.964 14.4114C348.282 15.2135 348.605 16.0729 348.922 16.875C349.401 18 350.042 19.0729 350.995 19.8229C351.532 20.25 352.167 20.8385 352.964 20.302C353.443 19.9791 353.443 19.2291 352.808 18.2656C351.74 16.4479 350.042 15.2135 347.964 14.4114ZM371.75 13.875C372.438 15.9114 373.24 17.9479 374.568 19.6041C375.047 20.1979 375.578 20.9479 376.485 20.677C377.016 20.5156 376.907 19.5 376.271 18.375C375.151 16.5 373.61 15.052 371.75 13.875ZM97.8961 14.25C98.4795 16.6041 99.4378 18.6979 101.245 20.3541C101.407 20.5156 101.568 20.625 101.782 20.7291C102.047 20.8385 102.313 21.1041 102.631 20.8385C102.844 20.625 102.792 20.3541 102.683 20.0885C102.631 19.875 102.578 19.6614 102.469 19.5C101.516 17.25 99.8128 15.6979 97.8961 14.25ZM290.235 21.9114C290.714 19.6041 288.266 16.2291 285.604 15.375C286.563 18 287.948 20.0885 290.235 21.9114Z" fill="#121212"/>
</svg>
