<svg width="468" height="16" fill="none" xmlns="http://www.w3.org/2000/svg"><mask id="a" style="mask-type:luminance" maskUnits="userSpaceOnUse" x="0" y="0" width="18" height="16"><path d="M0 .135h17.333V16H0V.135z" fill="#fff"/></mask><g mask="url(#a)"><path d="M9.864.135c3.209.245 5.901 1.985 6.896 4.589 1.078 2.786.412 5.62-2.219 7.802a15.874 15.874 0 01-4.963 2.76 5.036 5.036 0 01-1.635.339 4.93 4.93 0 01-1.657-.219 4.932 4.932 0 01-1.5-.745 5.041 5.041 0 01-1.182-1.192c-1.078-1.407-2.365-2.88-2.766-4.526-.864-3.526 1.339-6.693 5.172-8C7.245.5 8.578.396 9.864.135z" fill="#000"/></g><mask id="b" style="mask-type:luminance" maskUnits="userSpaceOnUse" x="322" y="0" width="17" height="16"><path d="M322.667.135h16V16h-16V.135z" fill="#fff"/></mask><g mask="url(#b)"><path d="M329.969.948c3.881-.02 6.49 1.531 7.511 4.25 1.015 2.719.198 5.781-2.094 7.932-.5.49-1.062.875-1.698 1.162a5.877 5.877 0 01-1.995.495 5.756 5.756 0 01-2.041-.23 5.793 5.793 0 01-1.834-.921c-.432-.323-.875-.62-1.343-.891-2.646-1.458-3.849-3.568-3.49-6.182.406-2.912 2.297-4.865 5.26-5.459a15.944 15.944 0 011.724-.156z" fill="#000"/></g><mask id="c" style="mask-type:luminance" maskUnits="userSpaceOnUse" x="421" y="0" width="17" height="16"><path d="M421.333.135h16V16h-16V.135z" fill="#fff"/></mask><g mask="url(#c)"><path d="M429.119.692c4.078-.02 7.323 3.01 7.323 6.834 0 3.667-3.838 7.531-7.604 7.531-4.26 0-6.432-3.219-6.656-7.635-.188-3.834 2.953-6.709 6.937-6.73z" fill="#000"/></g><mask id="d" style="mask-type:luminance" maskUnits="userSpaceOnUse" x="390" y="0" width="17" height="16"><path d="M390.667.135h16V16h-16V.135z" fill="#fff"/></mask><g mask="url(#d)"><path d="M398.86.969c4.041 0 7.047 2.844 7.031 6.666 0 3.74-3.766 7.136-7.891 7.146-3.744 0-6.369-2.99-6.364-7.27.005-3.693 3.156-6.537 7.224-6.542z" fill="#000"/></g><mask id="e" style="mask-type:luminance" maskUnits="userSpaceOnUse" x="34" y="0" width="16" height="16"><path d="M34.667.135h14.667V16H34.667V.135z" fill="#fff"/></mask><g mask="url(#e)"><path d="M34.99 7.708C34.948 3.927 38.135.833 42.104.864 46.068.891 48.99 3.687 49 7.406c0 4.427-2.745 7.458-6.812 7.484-3.615.037-7.157-3.505-7.198-7.182z" fill="#000"/></g><mask id="f" style="mask-type:luminance" maskUnits="userSpaceOnUse" x="294" y="0" width="17" height="15"><path d="M294.667.135h16v14.531h-16V.136z" fill="#fff"/></mask><g mask="url(#f)"><path d="M302.75 1.229a6.894 6.894 0 012.558.422c.411.146.807.333 1.182.557.375.224.729.48 1.057.766.328.291.625.604.896.953.271.344.511.708.714 1.099.203.39.37.792.5 1.213.125.422.218.85.265 1.287.334 3.057-2.047 5.927-5.583 6.74-4.38 1-8.073-.86-8.937-4.495-.98-4.042 2.875-8.521 7.348-8.542z" fill="#000"/></g><mask id="g" style="mask-type:luminance" maskUnits="userSpaceOnUse" x="68" y="0" width="15" height="16"><path d="M68 .135h14.667V16H68V.135z" fill="#fff"/></mask><g mask="url(#g)"><path d="M68.469 7.974c-.016-3.839 3.229-7.078 7.156-7.11 3.693-.047 6.703 2.792 6.734 6.35.026 3.817-3.453 7.676-6.953 7.702-3.65.016-6.916-3.244-6.937-6.942z" fill="#000"/></g><mask id="h" style="mask-type:luminance" maskUnits="userSpaceOnUse" x="225" y="0" width="15" height="15"><path d="M225.333.135H240v14.531h-14.667V.136z" fill="#fff"/></mask><g mask="url(#h)"><path d="M232.578 14.458c-4.541-.11-7.151-2.5-7.026-6.422.125-3.927 3.448-6.864 7.641-6.74 4.021.12 6.812 2.834 6.687 6.5-.114 3.381-3.802 6.746-7.302 6.662z" fill="#000"/></g><path d="M135.614 1.38c3.271 0 5.563.912 6.745 3.51 1.12 2.449.771 4.819-.984 6.933-1.844 2.214-4.11 3.146-6.849 2.156-1.485-.53-3.177-1.052-4.219-2.125-3.135-3.218-1.667-8.328 2.698-9.9a15.455 15.455 0 012.609-.574z" fill="#000"/><mask id="i" style="mask-type:luminance" maskUnits="userSpaceOnUse" x="358" y="0" width="16" height="16"><path d="M358.667.135h14.667V16h-14.667V.135z" fill="#fff"/></mask><g mask="url(#i)"><path d="M366.464.984c3.698 0 6.599 2.704 6.646 6.183.041 3.718-3.787 7.578-7.532 7.588-3.604 0-5.729-2.547-5.765-7-.037-3.864 2.802-6.76 6.651-6.77z" fill="#000"/></g><mask id="j" style="mask-type:luminance" maskUnits="userSpaceOnUse" x="452" y="1" width="16" height="14"><path d="M452 1.333h15.958v13.334H452V1.334z" fill="#fff"/></mask><g mask="url(#j)"><path d="M459.328 1.495c5.125.057 8.62 4.36 6.995 8.724-1.276 3.417-3.823 4.333-8.167 3.958-3.708-.317-5.869-2.875-5.666-6.177.208-3.307 3.599-6.547 6.838-6.505z" fill="#000"/></g><mask id="k" style="mask-type:luminance" maskUnits="userSpaceOnUse" x="197" y="0" width="15" height="16"><path d="M197.333.135H212V16h-14.667V.135z" fill="#fff"/></mask><g mask="url(#k)"><path d="M204.619 1.03c3.74 0 6.641 2.834 6.615 6.428-.026 3.463-3.839 7.27-7.266 7.27-3.432 0-6.265-3.27-6.218-7.296.041-3.662 3.01-6.422 6.869-6.401z" fill="#000"/></g><mask id="l" style="mask-type:luminance" maskUnits="userSpaceOnUse" x="98" y="0" width="16" height="15"><path d="M98.667.135h14.667v14.531H98.667V.136z" fill="#fff"/></mask><g mask="url(#l)"><path d="M106.548 1.192c3.692 0 6.849 2.771 6.625 6.178-.235 3.64-2.261 7.276-7.589 7.203-3.484-.042-5.786-2.683-5.766-6.657.01-3.911 2.844-6.74 6.73-6.724z" fill="#000"/></g><mask id="m" style="mask-type:luminance" maskUnits="userSpaceOnUse" x="260" y="0" width="15" height="16"><path d="M260 .135h14.667V16H260V.135z" fill="#fff"/></mask><g mask="url(#m)"><path d="M267.063 1.083c3.588 0 6.557 2.865 6.526 6.313-.032 3.854-3.151 7.276-6.61 7.276-3.354 0-6.489-3.527-6.411-7.22.005-.421.057-.843.146-1.254.093-.417.218-.818.385-1.204.172-.39.375-.755.615-1.104a6.16 6.16 0 01.807-.968 6.472 6.472 0 013.297-1.724 6.666 6.666 0 011.245-.115z" fill="#000"/></g><path d="M169.984 1.589c3.875.041 6.703 2.734 6.672 6.348-.031 3.329-2.984 6.292-6.229 6.235-4.151-.078-7.255-2.906-7.188-6.547.063-3.49 2.953-6.083 6.745-6.036z" fill="#000"/></svg>