<svg width="478" height="102" fill="none" xmlns="http://www.w3.org/2000/svg"><path d="M285.411 101.298l-2.442-3.583c11.208-8.167 23.708-17.334 27.88-31.948 1.724-6.308 1.146-12.61-1.729-17.766-6.464-11.463-20.406-11.896-33.339-10.75-55.906 4.875-104.62 20.35-148.885 47.281l-14.37 8.74 11.641-12.031c11.494-11.896 17.677-20.063 21.698-34.1 2.156-7.307 2.015-14.614-.141-20.921-6.182-17.906-26.729-21.776-42.828-21.922h-.86c-35.5 0-71.713 12.896-99.307 35.25L0 36.251C28.599 13.038 66.11-.139 102.896.001c25.005.146 41.245 8.74 46.849 24.787 2.442 7.166 2.588 15.333.291 23.5-3.161 10.885-7.76 18.625-13.369 25.645 41.536-23.067 87.088-36.395 138.828-40.979 14.224-1.286 29.745-.713 37.364 13.037 3.448 6.161 4.167 13.614 2.157 21.062-1.87 6.88-5.464 12.61-9.776 17.48 41.536-24.068 85.796-44.412 133.942-43.985 8.62.146 19.688 1.005 28.308 7.167 8.192 5.87 13.51 18.052 7.906 27.505l-3.74-2.146c4.172-7.167 0-17.193-6.609-21.922-7.615-5.448-17.818-6.161-25.865-6.307h-1.583c-55.042-.14-105.339 27.797-152.188 56.453z" fill="#121212"/></svg>