<svg width="480" height="27" fill="none" xmlns="http://www.w3.org/2000/svg"><path d="M120.032 13.23c1.328.968 2.5 1.983 3.458 3.27.687 1.016 1.38 2.036 1.646 3.213.265 1.125.213 2.25-.797 3.053-1.011.807-2.182.698-3.245.057-1.333-.807-2.396-1.932-3.245-3.219-1.172-1.765-1.916-3.75-2.661-5.729-.214-.646-.479-1.073-1.328-1.073-4.417.052-8.834.052-13.25.11-.11 0-.162.104-.318.16.156.59.687.855 1.062 1.282 1.172 1.235 2.235 2.521 2.928 4.125.317.698.531 1.396.479 2.146-.058 1.927-1.438 2.89-3.245 2.198-1.172-.432-2.078-1.287-2.823-2.25-1.438-1.823-2.338-3.912-3.031-6.057-.532-1.766-.64-1.443-1.969-1.443h-18.25c0 .693.531.963.849 1.281 1.281 1.235 2.182 2.682 2.98 4.287.588 1.125.853 2.307.744 3.536-.156 1.927-1.698 2.896-3.51 2.198-2.391-.912-3.99-2.734-5.105-4.984C70.71 18 70.177 16.448 69.537 15c-1.063-2.464-.318-2.089-3.14-2.089-3.084 0-6.225 0-9.308.053-.537 0-1.172-.162-1.76.374.801.641 1.546 1.287 2.343 1.928 1.328 1.072 2.5 2.307 3.297 3.807.906 1.604.854 2.89-.104 3.802-.906.911-2.287 1.073-3.833.266-2.183-1.068-3.829-2.787-5.214-4.766-.958-1.339-1.807-2.734-2.5-4.234-.427-.912-.958-1.068-1.807-1.016-2.183.052-4.313.104-6.495.161-2.073.053-4.203.105-6.703.214.958.75 1.599 1.338 2.291 1.875 1.22.963 2.339 1.927 3.35 3.161.317.427.64.855.906 1.287.635 1.068.849 2.193 0 3.265-.855 1.016-1.97 1.448-3.245 1.125-2.026-.484-3.781-1.609-5.219-3.109-1.911-1.979-3.031-4.443-4.255-6.802-.214-.375-.266-.802-.849-.802h-9.896c-.11.64.37.698.584.911 1.223 1.016 2.447 1.98 3.296 3.375.271.427.537.912.745 1.391.906 2.302-.37 4.073-2.87 3.912-1.437-.11-2.609-.75-3.62-1.766C13.725 19.5 12.553 17.25 11.329 15c-.213-.375-.213-.912-.317-1.448H3.615c-.693 0-1.386 0-2.078-.104C.9 13.39.157 13.229.209 12.427c.052-.854.797-.802 1.437-.802 2.714.161 5.48 0 8.193 0 1.062 0 1.65-.214 2.13-1.339 1.38-3.057 3.776-5.145 6.542-6.807 1.12-.64 2.344-.963 3.62-.854 1.593.161 2.447 1.338 2.02 2.89-.37 1.448-1.328 2.521-2.448 3.433-.906.802-2.02 1.338-3.03 1.979.265.537.692.323 1.01.323 2.5 0 4.948 0 7.448.052.854 0 1.437-.266 2.02-.911 1.49-1.766 2.927-3.641 4.792-5.037 1.38-1.016 2.766-1.979 4.36-2.516 1.223-.375 2.505-.484 3.671.11 1.49.693 1.865 2.031.959 3.427-.636.963-1.49 1.661-2.5 2.14-1.328.698-2.766 1.34-4.1 1.985-.317.161-.687.161-.9.536.317.318.692.214 1.01.162 3.672-.057 7.396-.11 11.068-.11.958 0 1.49-.374 2.02-1.177 1.86-2.838 4.152-5.198 7.287-6.588 1.281-.537 2.557-.969 3.995-.537 2.125.693 2.656 2.25 1.38 4.016-.583.86-1.438 1.396-2.286 1.927a72.103 72.103 0 01-3.032 1.771c.266.48.688.266 1.01.266h10.59c.687 0 1.166-.105 1.702-.75 2.021-2.568 4.36-4.875 7.183-6.641 1.541-.964 3.135-1.5 4.89-1.448.855.052 1.651.27 2.396.698 1.224.802 1.49 2.088.64 3.266-.796 1.125-1.864 1.875-3.036 2.52-1.166.589-2.39 1.125-3.562 1.714-.214.104-.48.161-.584.48.214.322.532.218.85.218H93c1.224 0 1.224-.057 1.755-1.287 1.49-3.536 3.672-6.375 7.396-7.823 1.224-.484 2.448-.64 3.724-.427 2.558.589 3.459 2.891 1.865 4.875-1.224 1.552-2.766 2.787-4.365 3.912-.265.213-.692.265-.744.693.317.27.692.161 1.062.161 3.141 0 6.333-.052 9.474 0 1.115.052 1.703-.375 2.125-1.39.854-1.985 1.969-3.75 3.458-5.308 1.438-1.5 3.089-2.516 5.11-3 .64-.156 1.224-.213 1.864-.052 2.339.536 3.245 2.734 1.912 4.77-.901 1.391-2.177 2.407-3.615 3.266-.745.428-1.489.912-2.292 1.339.428.427.855.27 1.172.27 4.631 0 9.261 0 13.886.053.854 0 1.333-.162 1.703-1.125 1.651-4.02 4.526-6.964 8.463-8.839 1.276-.645 2.657-.911 4.146-.536 1.761.48 2.448 1.823 1.865 3.536-.266.693-.693 1.287-1.172 1.875-1.438 1.605-3.135 2.839-5 3.855-.583.322-1.276.536-1.969 1.234h1.386c5.213 0 10.427 0 15.64.052 1.011 0 1.328-.375 1.755-1.23 1.808-3.536 4.365-6.374 8.037-7.984.531-.213 1.115-.375 1.703-.322 2.073.109 3.297 2.088 2.391 3.963-.584 1.234-1.49 2.198-2.552 2.948-.584.427-1.224.86-1.865 1.234-.635.375-1.276.693-1.911 1.068.052.432.369.323.583.375 3.885.11 7.766.162 11.703.271.854.052 1.281-.214 1.547-1.073.901-2.839 2.656-5.14 4.896-7.125.901-.802 1.859-1.39 3.031-1.604 1.276-.219 2.448.052 3.245 1.125.849 1.125.583 2.302-.104 3.427-.907 1.39-2.079 2.516-3.459 3.427a57.961 57.961 0 01-2.396 1.5c.053.427.37.323.636.323 3.036.052 6.12.052 9.151.104 1.016 0 1.599-.213 2.078-1.177 1.38-2.573 3.141-4.766 5.693-6.266 1.172-.698 2.448-1.234 3.828-1.448.588-.109 1.172-.161 1.703-.052 1.172.162 2.292.427 2.823 1.714.531 1.23-.214 2.14-.906 3a8.22 8.22 0 01-2.125 1.927c-1.016.646-2.026 1.287-3.193 2.037.479.265.901.213 1.276.213a634.49 634.49 0 019.948-.104c1.01 0 1.542-.375 1.969-1.235 1.224-2.302 2.817-4.338 5-5.89 1.333-.912 2.713-1.61 4.312-1.932.636-.105 1.276-.162 1.86 0 1.703.432 2.5 1.77 2.026 3.484-.323 1.073-1.016 1.875-1.761 2.573-.849.802-1.859 1.39-2.87 1.979-.375.214-.744.323-1.119.912.531 0 .958.052 1.333.052 2.766.109 5.583.109 8.349.27 2.557.105 5.109-.161 7.719-.161.692 0 1.01-.427 1.328-.912a22.23 22.23 0 012.875-4.177c1.703-1.984 3.614-3.698 5.906-4.932.958-.531 2.021-.906 3.135-.854 1.813.104 2.875 1.604 2.344 3.323-.427 1.443-1.333 2.625-2.448 3.64-1.172 1.016-2.448 1.875-3.724 2.625-.427.266-.958.376-1.224.912.214.323.479.213.745.213 2.818.053 5.693.053 8.511.162.906.052 1.281-.27 1.546-1.125 1.276-4.125 3.938-7.073 7.818-8.839 1.281-.588 2.609-.911 3.995-.536 1.911.48 2.713 2.088 1.911 3.911-.531 1.177-1.437 2.089-2.448 2.891-1.38 1.177-2.921 2.036-4.52 2.896-.37.213-.797.265-1.011.64.214.376.531.214.849.214 3.302.052 6.651.052 9.953.162 1.011.052 1.438-.323 1.86-1.235 1.276-2.625 3.036-4.818 5.375-6.531 1.489-1.073 3.088-1.823 5-1.662.588.052 1.172.162 1.651.427 1.172.641 1.541 1.662 1.119 2.948-.27.802-.802 1.443-1.385 2.089-1.437 1.448-3.088 2.516-4.844 3.48.162.483.532.322.802.322 3.349 0 6.756-.104 10.11-.052.901 0 1.276-.323 1.594-1.125 1.01-2.36 2.5-4.396 4.364-6.162 1.912-1.822 4.203-2.786 6.807-2.89.532 0 1.068 0 1.542.265.854.428 1.224 1.125 1.068 2.089-.11.698-.479 1.286-.906 1.823-1.438 1.875-3.245 3.323-5.266 4.5-.479.323-1.011.588-1.49.854.104.485.479.323.745.323 4.63 0 9.255-.052 13.886-.052.744 0 1.119-.162 1.385-.912 1.062-2.89 3.135-4.984 5.583-6.697 1.334-.964 2.823-1.443 4.469-1.23 2.448.318 3.302 2.25 1.865 4.23-.959 1.338-2.344 2.25-3.776 3.109-.693.427-1.386.802-2.026 1.177.109.484.427.323.64.323 3.886 0 7.823 0 11.703.052.854 0 1.224-.213 1.547-1.125 1.115-3.161 3.031-5.677 5.849-7.448 1.281-.802 2.662-1.338 4.151-1.23 2.292.105 3.193 1.714 2.078 3.699-.958 1.604-2.291 2.89-3.724 4.068a65.615 65.615 0 00-2.343 1.822c.427.376.796.214 1.119.214h14.521c.906 0 1.334-.323 1.761-1.125 2.286-4.125 5.692-6.75 10.375-7.552a3.908 3.908 0 011.593 0c1.756.323 2.344 1.552 1.49 3.161-.37.693-.958 1.287-1.542 1.818-1.276 1.125-2.713 1.984-4.203 2.844-.318.156-.693.265-.854.64.266.323.589.214.906.214 3.672.052 7.396.052 11.068.11.797 0 1.276-.214 1.755-.964 1.865-2.844 4.417-4.985 7.448-6.432 1.224-.589 2.5-.803 3.833-.318 1.646.64 2.183 2.193 1.224 3.693-.64.963-1.546 1.609-2.5 2.145-.958.537-1.916 1.016-2.984 1.553.375.374.745.265 1.068.265 3.828 0 7.713-.052 11.547-.052.849 0 1.166-.323 1.645-1.016 2.396-3.75 5.589-6.432 10.006-7.448 1.062-.265 2.125-.052 3.031.537 1.489.854 1.703 2.463.531 3.75-.693.802-1.594 1.39-2.5 1.875-.693.375-1.437.698-2.13 1.016-.688.322-1.432.588-2.177.911.156.537.531.323.797.323 4.682.052 9.364 0 14.047.266.849.057 1.593.057 1.755-1.068 0-.11.104-.219.161-.271C437.136 6 440.756 3 446.131 3.213c.635 0 1.276.162 1.859.375 1.547.641 1.969 2.141.906 3.485-.531.75-1.328 1.229-2.073 1.656-1.224.698-2.557 1.234-3.885 1.719-.427.156-.849.318-1.386.479.537.375.959.27 1.334.27h13.885c.797 0 1.276-.218 1.755-.968 1.704-2.625 3.99-4.656 6.651-6.213 1.276-.75 2.662-1.287 4.204-1.178 1.119.053 2.078.485 2.552 1.553.479 1.072.057 1.984-.636 2.786-.64.86-1.489 1.5-2.396 2.036-.958.589-1.859 1.126-2.927 1.766.479.432 1.011.323 1.49.375 3.406.11 6.864.219 10.271.11.692 0 1.437-.266 1.651.75.104.64-.427 1.072-1.599 1.072-2.766.053-5.584.053-8.354.053h-4.787c.104.588.584.802.906 1.072 1.276 1.178 2.553 2.355 3.511 3.855.745 1.182 1.114 2.411.693 3.75-.537 1.661-1.917 2.625-3.62 2.359-1.12-.162-2.073-.698-2.927-1.5-2.021-1.927-3.084-4.396-3.62-7.073-.156-.802 0-1.875-.636-2.354-.64-.537-1.651-.162-2.447-.162-5.532 0-11.068.105-16.599-.057-.214 0-.427.057-.641.057-.052.589.427.75.693 1.016 1.38 1.396 2.661 2.839 3.562 4.61.589 1.177.959 2.354.854 3.64-.109 1.287-.854 1.984-2.182 1.984-.745 0-1.437-.27-2.073-.645-2.078-1.177-3.672-2.839-4.578-5.089a35.54 35.54 0 01-1.594-4.823c-.161-.588-.323-.963-1.015-.963-5.745 0-11.49-.318-17.235-.214-.109 0-.161.11-.323.214.162.588.693.859 1.068 1.286 1.432 1.5 2.766 3.052 3.667 4.984.427.855.745 1.766.802 2.73.052 1.073-.214 2.036-1.172 2.625-.906.536-1.865.323-2.714-.214-1.864-1.177-3.244-2.838-4.255-4.823-1.01-1.875-1.755-3.854-2.5-5.838-.265-.641-.536-.964-1.224-.912-4.739.11-9.474.162-14.208.271-.052 0-.162.104-.318.213.636.589 1.276 1.178 1.917 1.823 1.167 1.178 2.125 2.464 2.5 4.125.37 1.552-.057 2.839-1.224 3.855-1.224 1.02-2.557.859-3.833.213-.797-.375-1.381-.963-1.917-1.604-1.115-1.448-1.912-3.052-2.552-4.714-.427-1.073-.797-2.198-1.172-3.323-.156-.484-.37-.697-.901-.697-4.261-.053-8.516-.266-12.771-.162-.213.537.266.698.479.912a18.41 18.41 0 012.875 3.536c.422.75.745 1.552.745 2.412.104 2.463-1.865 3.697-4.047 2.572-.906-.484-1.594-1.234-2.182-2.036-1.438-1.984-2.339-4.287-3.245-6.537-.318-.75-.635-.963-1.328-.963H350.36c-.162.588.317.64.583.854 1.068.807 2.078 1.61 2.927 2.682.797.964 1.328 2.037 1.328 3.318 0 1.557-.953 2.573-2.5 2.735-1.38.109-2.448-.485-3.401-1.391-1.172-1.125-1.969-2.469-2.557-3.969a58.933 58.933 0 01-1.224-3.265c-.214-.641-.583-.912-1.276-.912h-13.406c.265.646.797.912 1.224 1.234a16.21 16.21 0 013.296 3.589c.584.854.959 1.766 1.063 2.786.323 2.302-1.432 4.016-3.724 3.75-1.062-.161-2.021-.645-2.87-1.286-1.281-.964-2.234-2.198-2.979-3.646-.958-1.818-1.865-3.693-2.609-5.625-.214-.588-.479-.854-1.12-.854-4.839 0-9.682.052-14.521.266-.057 0-.161.109-.323.213.375.375.745.698 1.12 1.021 1.437 1.286 2.661 2.73 3.615 4.39.479.808.802 1.61.906 2.521.265 2.193-1.276 3.693-3.459 3.266-1.224-.266-2.234-.911-3.14-1.766-1.594-1.557-2.604-3.432-3.401-5.52-.427-1.125-.906-2.25-1.281-3.427-.209-.537-.532-.75-1.063-.698-4.786.109-9.578.213-14.365.322-.052 0-.052.053-.213.162.213.427.641.588 1.01.911 1.276 1.016 2.448 2.193 3.302 3.589.688 1.125 1.011 2.302.849 3.64-.213 1.662-1.593 2.464-3.088 1.823-.745-.322-1.328-.859-1.86-1.447-1.599-1.766-2.875-3.641-3.671-5.891-.214-.646-.532-1.287-.693-1.927-.214-.698-.583-.912-1.276-.86-1.386.053-2.714 0-4.099 0-1.969 0-3.88-.052-5.849-.052-.427 0-.854-.161-1.276.214.156.427.583.536.901.802.958.75 1.864 1.552 2.661 2.464.693.807 1.224 1.713 1.438 2.786.479 2.198-.906 3.646-3.089 3.427-.958-.104-1.807-.531-2.604-1.068-1.864-1.338-3.245-3-3.989-5.198-.323-.963-.693-1.875-1.068-2.838-.214-.537-.583-.802-1.224-.802-2.927 0-5.906 0-8.828-.057-.058 0-.162.109-.271.161.271.427.745.537 1.172.75a15.807 15.807 0 013.989 3.052c.855.912 1.49 1.932 1.865 3.11.693 2.25-.641 4.072-2.979 4.125-1.011 0-1.865-.375-2.662-.86-3.083-1.875-5.588-4.338-7.02-7.713-.375-.855-.537-2.037-1.386-2.412-.849-.427-1.969-.104-2.979-.052-3.141.214-6.333.162-9.469 0-3.036-.104-6.12 0-9.208 0-.156.375.323.484.588.698 1.756 1.552 3.297 3.266 4.36 5.411.692 1.443 1.01 2.891.531 4.443-.687 2.25-2.5 2.948-4.411 1.662-.907-.589-1.599-1.391-2.183-2.302-1.812-2.787-3.245-5.735-3.781-9-.156-.912-.531-1.073-1.328-1.073-4.896.109-9.792.213-14.682.27-.162 0-.323.053-.537.105.057.588.589.859.906 1.234 1.49 1.713 2.714 3.64 3.355 5.838.317 1.073.421 2.198.213 3.323-.427 2.141-2.505 3.214-4.474 2.25-1.167-.588-2.021-1.5-2.604-2.682-1.276-2.354-1.865-4.927-2.021-7.604a7.595 7.595 0 010-1.61c.052-.692-.323-.963-.958-.91h-9.792c-.265 0-.531-.053-.797.218.162.375.532.588.797.854 1.542 1.448 2.927 3.052 3.833 4.984.37.693.636 1.443.797 2.25.266 1.5-.265 2.787-1.385 3.48-1.167.698-2.604.484-3.776-.641-1.276-1.234-2.234-2.677-2.979-4.287-.797-1.765-1.386-3.697-1.49-5.625-.109-1.39-.109-1.39-1.599-1.447-3.562-.053-7.182-.105-10.745-.162-.64 0-1.224-.156-2.02.162.421.432.796.859 1.166 1.234.906.911 1.703 1.875 2.183 3.104.64 1.557.322 3.219-.849 4.235-1.011.911-2.714.859-4.099-.053-1.329-.859-2.125-2.198-2.766-3.588-.693-1.5-1.328-3-1.969-4.5-.213-.594-.583-.807-1.172-.807h-17.609c.214.697.745.911 1.172 1.234 1.646 1.338 3.031 2.89 4.094 4.766.427.75.744 1.5.796 2.411.11 1.823-.901 2.948-2.713 2.948-1.859 0-3.188-.964-4.359-2.25-2.183-2.412-3.782-5.198-5.058-8.198-.265-.64-.583-.963-1.38-.963-5.484.052-10.963 0-16.443 0 .105.322-.104.265-.369.64zm-23.735-2.303c4.047-1.016 7.13-2.89 9.688-5.786.265-.318.583-.641.422-1.125-.157-.537-.688-.589-1.167-.693-.479-.057-.958 0-1.386.104a9.46 9.46 0 00-4.15 2.198c-1.49 1.448-2.5 3.161-3.407 5.302zm230.334 2.146c-.162.104-.162.318-.11.427.906 2.198 1.813 4.39 3.193 6.323.745 1.068 1.755 1.979 3.088 2.354 1.167.323 1.86-.161 1.756-1.448-.052-1.015-.589-1.765-1.172-2.568-1.651-2.198-3.828-3.698-6.172-5.088-.214 0-.37-.11-.583 0zm-186.172-3.11c.906 0 1.547-.375 2.234-.64 2.661-1.073 5.219-2.307 7.188-4.448.583-.646 1.645-1.339 1.01-2.198-.589-.854-1.76-.375-2.609-.052a12.857 12.857 0 00-4.151 2.573c-1.438 1.338-2.766 2.781-3.672 4.765zm109.979 4.073c1.276 3.75 3.776 6.105 6.812 7.928.266.161.584.265.849.375.479.161.959.052 1.328-.266.427-.375.323-.86.162-1.287a6.168 6.168 0 00-1.438-2.25c-2.02-2.25-4.63-3.432-7.713-4.5zm16.708-3.536c3.458-1.552 6.651-2.948 9.203-5.464.214-.213.427-.484.584-.75.64-1.02.375-1.557-.849-1.609-.532 0-1.011.11-1.542.27-1.385.48-2.661 1.178-3.781 2.194-1.594 1.395-2.87 2.947-3.615 5.359zm-64.969 3.963c-.156.053-.265.11-.421.162.104.963.156 1.98.265 2.948.266 1.979.849 3.802 1.86 5.515.692 1.125 1.703 1.714 2.395 1.448.745-.27 1.011-1.286.693-2.682-.693-3.104-2.557-5.406-4.792-7.39zm47.677-3.963c3.136-1.177 6.063-2.677 8.511-4.927.318-.323.641-.698.906-1.073.37-.537 1.011-1.177.531-1.823-.531-.698-1.276-.161-1.864.11-3.563 1.66-6.115 4.338-8.084 7.713zm-47.677.427c.162.052.271.11.323.11 2.979-.86 5.849-2.037 8.297-4.021a7.919 7.919 0 001.334-1.339c.531-.698.369-1.016-.48-1.125-1.276-.161-2.5.11-3.672.646-2.552 1.229-4.468 3.213-5.802 5.729zM30.271 13.979c1.276 2.037 2.073 4.235 3.828 5.844 1.12 1.068 2.396 1.927 3.886 2.302.427.104.958.161 1.333-.27.37-.48.052-.907-.213-1.282a11.205 11.205 0 00-.641-.86c-1.969-2.197-4.307-3.963-6.865-5.515-.317-.219-.635-.485-1.328-.219zm86.938-3.75c2.609-.802 5-2.031 7.13-3.64.531-.376 1.01-.964 1.437-1.448.318-.375.532-.803.318-1.287-.266-.588-.797-.588-1.328-.588-.745 0-1.438.213-2.13.536-2.662 1.339-4.255 3.698-5.427 6.427zm-46.079 3c.48 1.287 1.016 2.625 1.49 3.912.537 1.395 1.281 2.682 2.344 3.75a5.57 5.57 0 001.916 1.395c.959.427 1.38.105 1.225-.963a6.753 6.753 0 00-.641-1.985c-1.224-2.411-3.031-4.286-5.162-5.89-.265-.162-.583-.432-1.172-.219zm69.438-.104c1.172 3.052 2.766 5.786 5.052 8.088.531.537 1.172.912 1.917 1.016.906.162 1.276-.265 1.062-1.177-.213-.75-.635-1.448-1.062-2.088-1.808-2.573-4.365-4.235-6.969-5.839zm250.016.427c.692 2.625 1.489 5.146 3.244 7.234.907 1.068 2.021 1.391 2.766.855.693-.48.854-1.714.109-2.891-1.437-2.464-3.567-4.073-6.119-5.198zm-167.23.912c.375 3.109 1.813 5.734 3.568 8.197.479.693 1.063 1.605 2.125 1.287.531-.162.693-1.662.427-2.682-.052-.105-.052-.214-.104-.266-1.281-2.839-3.354-4.927-6.016-6.537zm-.213-3.698c.375.322.641.27.854.161 1.917-.911 3.828-1.661 5.641-2.786.849-.537 1.703-1.068 2.338-1.875.427-.48.959-1.016.641-1.662-.323-.693-1.12-.479-1.703-.318-3.672.855-5.906 3.375-7.771 6.48zm238.312 3.213c.266 3 1.063 5.469 3.032 7.448.588.646 1.276 1.073 2.182 1.073.797 0 1.12-.323 1.224-1.125.104-.86-.214-1.552-.693-2.198-1.541-1.98-3.406-3.64-5.745-5.198zm-156.052-.156c-.109.052-.213.156-.323.213.48 1.287 1.011 2.625 1.49 3.912.323.802.745 1.5 1.281 2.193.745 1.02 1.594 1.932 2.87 2.359 1.068.375 1.49 0 1.333-1.125-.057-.27-.109-.537-.213-.75-1.386-2.948-3.511-5.25-6.438-6.802zM72.943 10.286c.318.162.583.053.901-.057a60.536 60.536 0 007.875-3.588c.531-.318 1.01-.75 1.49-1.125.213-.214.536-.428.427-.803-.104-.427-.531-.427-.906-.484-1.167-.156-2.34-.052-3.35.484C76.986 6 74.86 7.604 73.1 9.698c-.157.156-.266.318-.157.588zm212.875.266c3.245-.911 6.229-2.25 8.516-4.766.156-.213.317-.432.479-.645.265-.48.156-.75-.375-.964-.959-.323-1.86-.052-2.766.375-2.661 1.234-4.469 3.375-5.854 6zm161.75-4.714c-3.302-1.713-9.26 1.339-11.656 4.875 4.047-1.39 8.198-2.036 11.656-4.875zm-142.38 4.125c3.828-.859 8.885-4.552 9.416-6.859-4.578.162-7.078 3.11-9.416 6.86zm41.818.698c2.927-1.448 5.479-3.109 7.505-5.411.479-.537 1.38-1.177 1.01-1.77-.531-.803-1.547-.214-2.291.056-2.235.855-3.829 2.516-5.105 4.552-.427.75-.906 1.448-1.119 2.573zm-295.771 2.73C52.084 15 52.938 16.5 54 17.89c.797 1.125 1.808 2.036 2.927 2.838.428.323.907.537 1.38.75.376.162.855.271 1.172-.104.266-.323.11-.75-.052-1.073-.265-.48-.583-1.016-.958-1.448-1.755-2.14-3.99-3.693-6.224-5.302-.213-.161-.48-.427-1.01-.161zm385.052.807c.375 1.979.849 3.854 1.969 5.463.849 1.23 1.916 2.302 3.354 2.787.745.265.953.104.797-.698-.11-.484-.214-.912-.427-1.339-1.224-2.682-3.193-4.661-5.693-6.213zm-249.912.963c.162 2.891 1.224 5.412 3.141 7.553.427.484.906 1.125 1.703.802.531-.214.641-.964.375-1.98 0-.057-.057-.109-.057-.161-1.011-2.677-2.818-4.61-5.162-6.214zm194.203-10.77c-3.88-.266-9.203 3.161-9.947 6.27 3.562-1.609 7.02-3.109 9.947-6.27zm80.131 6.484c1.651-.27 3.031-.964 4.468-1.61 1.49-.692 2.928-1.442 4.099-2.567.37-.323 1.011-.75.745-1.287-.265-.645-1.01-.432-1.547-.323-.265.053-.531.053-.744.162-2.98 1.125-5.214 3.161-7.021 5.625zm-193.511 3.104c.531 2.412 1.38 4.287 3.031 5.735.693.588 1.438 1.125 2.287 1.338.906.27 1.333-.213 1.12-1.125-.162-.698-.532-1.286-.959-1.823-1.385-1.713-3.244-2.89-5.479-4.125zm-253.583-.375c-.318.375-.318.646-.266.807 1.01 1.928 2.021 3.803 3.568 5.412.635.64 1.438 1.068 2.338 1.177.907.104 1.172-.323.907-1.125A6.025 6.025 0 0019.042 18c-1.542-1.77-3.51-3-5.427-4.396zM413.25 9.588c3.032-.75 6.063-1.661 8.672-3.484.214-.156.427-.318.584-.531.375-.432.213-.807-.266-.969-.693-.213-1.49-.156-2.182.057-2.818.855-5 2.568-6.808 4.927zM165.573 13.23c.745 1.875 1.276 3.698 2.287 5.36.479.802 1.119 1.552 2.078 1.875.745.213 1.224-.053 1.437-.803.157-.484.052-.911-.213-1.395-1.276-2.355-3.245-3.912-5.589-5.037zM13.99 10.875c2.396-.964 4.682-1.984 6.65-3.537a6.288 6.288 0 001.116-1.286c.265-.375.692-.802.322-1.23-.265-.374-.802-.218-1.171-.056-3.245.963-5.375 3.213-6.917 6.109zm151.797-1.02c2.661-.964 5.265-2.032 7.291-4.069.318-.323.636-.75.797-1.182.318-.64-.052-1.177-.744-1.125-.323 0-.641.11-.907.219-2.875 1.281-4.896 3.479-6.437 6.156zm19.635.218c1.912-.646 3.615-1.662 5.214-2.844.745-.531 1.328-1.229 1.859-1.927.318-.427.693-.911.318-1.448-.318-.427-.849-.318-1.328-.266-.266.053-.532.11-.745.214-2.552 1.448-4.151 3.698-5.318 6.27zm227.24 3.64c.958 2.735 1.812 5.573 3.885 7.714.479.484.959 1.02 1.542 1.339.588.323.906.161.854-.537-.052-1.068-.531-2.031-1.068-2.943-1.38-2.25-3.244-3.911-5.213-5.573zm-85.13-3.911c.161.27.375.214.479.161 2.182-1.015 4.364-2.088 6.333-3.536.479-.375.958-.802 1.328-1.39.323-.485.162-.808-.422-.912-1.067-.27-2.026.052-2.875.588-1.755 1.073-3.297 2.464-4.468 4.235-.162.265-.532.531-.375.854zm-275.5.427c2.979-.75 5.692-2.031 8.14-3.963.162-.105.318-.318.427-.48.318-.432.266-.807-.323-.911-.583-.11-1.166-.11-1.698.052-2.823 1.02-5.005 2.734-6.546 5.302zM32.344 9.75a31.056 31.056 0 007.77-3.27c.214-.157.423-.319.636-.48.266-.27.745-.537.532-1.02-.209-.428-.688-.376-1.115-.376-.162 0-.318 0-.48.057-3.082.802-5.374 2.73-7.343 5.089zm359.089.588c2.448-.802 4.791-1.713 6.974-2.947.583-.318 1.166-.75 1.541-1.287.266-.375.157-.693-.323-.802-.797-.161-1.541-.052-2.286.27-2.339 1.016-4.255 2.73-5.906 4.766zm-274.011 3.698c.906 2.787 2.021 4.98 4.042 6.693.265.219.588.485.958.537.531.109.854-.105.797-.641 0-.646-.318-1.234-.583-1.77-1.224-2.09-2.927-3.48-5.214-4.819zm230.542.375c.318.803.641 1.662.958 2.464.479 1.125 1.12 2.198 2.073 2.948.537.427 1.172 1.015 1.969.479.479-.323.479-1.073-.156-2.036-1.068-1.818-2.766-3.052-4.844-3.855zm23.786-.536c.688 2.036 1.49 4.073 2.818 5.73.479.593 1.01 1.343 1.917 1.072.531-.161.422-1.177-.214-2.302-1.12-1.875-2.661-3.323-4.521-4.5zm-273.854.375c.584 2.354 1.542 4.448 3.349 6.104.162.162.323.271.537.375.265.11.531.375.849.11.213-.214.161-.485.052-.75-.052-.214-.105-.428-.214-.589-.953-2.25-2.656-3.802-4.573-5.25zm192.339 7.661c.479-2.307-1.969-5.682-4.631-6.536.959 2.625 2.344 4.713 4.631 6.536z" fill="#121212"/></svg>