<svg width="465" height="36" fill="none" xmlns="http://www.w3.org/2000/svg"><path fill-rule="evenodd" clip-rule="evenodd" d="M440.703 1.028c2.402.054 4.798.463 6.654 1.877 2.189 1.745 2.7 4.278 2.937 6.678 3.438-3.12 8.064-6.23 12.544-7.856h.692l.491.444v.636l-.491.443c-.111 0-1.84.764-1.956.813a41.896 41.896 0 00-11.259 7.93 25.287 25.287 0 01-4.778 13.315c-1.689 2.306-6.588 7.791-8.57 5.667a2.11 2.11 0 01-.394-1.838 9.05 9.05 0 01.435-1.66c2.017-5.343 7.149-12.07 11.33-16.056a12.609 12.609 0 00-.597-4.652 5.473 5.473 0 00-1.426-2.257c-.96-.853-1.956-1.11-3.255-1.42a16.05 16.05 0 00-5.157-.034c-7.625 1.148-15.441 5.485-21.391 9.93-.648.488-1.305 1.01-1.386 1.109a30.124 30.124 0 01-.95 5.14 32.873 32.873 0 01-1.689 4.804c-1.213 2.854-4.1 7.865-7.503 7.584-.541-.034-.94-.29-1.188-.768-.536-1.025-.333-3.43-.202-4.564a10.38 10.38 0 011.876-4.952 30.125 30.125 0 014.236-5.125c3.61-3.553 3.221-2.543 3.272-3.322.192-7.12-2.483-11.236-10.35-10.753-5.339.454-10.197 2.8-14.636 5.43a12.61 12.61 0 01-.036 3.88c-.788 5.09-3.807 11.132-6.825 15.31-1.582 2.189-4.697 6.165-7.558 6.047-1.123-.088-2.624-1.197-3.307-2.01-2.902-3.45-.824-8.215 1.719-11.852 2.902-4.007 6.871-7.998 13.196-12.182a3.097 3.097 0 00-1.158-1.444 8.911 8.911 0 00-3.377-1.346c-8.863-1.759-23.131 6.372-30.522 11.261-1.497 5.445-6.193 14.36-11.087 17.342a5.617 5.617 0 01-2.741.833 1.677 1.677 0 01-1.259-.414c-.445-.414-.611-.922-.495-1.518.233-2.563 5.41-11.103 7.169-13.06.88-.985 5.845-4.395 5.966-4.48.349-1.389.445-2.793.298-4.217a5.12 5.12 0 00-.733-2.189 5.256 5.256 0 00-1.623-1.66 8.898 8.898 0 00-3.458-1.208c-9.808-1.444-27.109 5.047-34.976 10.881a22.127 22.127 0 01-2.477 7.89c-1.375 2.632-5.162 8.718-8.236 7.984-1.689-.444-1.78-2.134-1.527-3.716a15.05 15.05 0 011.633-4.918c1.891-3.484 4.57-5.909 7.781-8.447v-.67a6.699 6.699 0 00-.87-3.272 6.818 6.818 0 00-2.336-2.48c-2.679-1.773-5.793-1.556-9.09-.94-5.066 1.104-9.505 3.144-13.898 5.716a55.842 55.842 0 00-6.603 4.564c-.162.128-.116.069-.152.266a28.723 28.723 0 01-3.028 8.387 18.848 18.848 0 01-3.944 4.84 11.646 11.646 0 01-2.007 1.66c-.773.478-1.244.808-1.81.808a1.532 1.532 0 01-1.122-.438 1.33 1.33 0 01-.415-.996 10.34 10.34 0 01.895-5.17 21.668 21.668 0 012.897-4.715 39.832 39.832 0 015.718-5.845c.465-2.927.248-6.732-1.987-8.856h-.066c-.045-.03-.091-.049-.136-.069a4.925 4.925 0 00-1.79-.315c-2.164-.069-5.066.552-7.169 1.109a70.469 70.469 0 00-20.506 9.452 20.664 20.664 0 01-2.007 9.255 15.023 15.023 0 01-3.039 4.292 18.86 18.86 0 01-2.932 2.114c-.622.38-1.264.419-1.926.118-.476-.27-.622-.522-1.002-1.281-2.902-5.815 2.346-11.739 7.802-15.794a15.035 15.035 0 00-.344-2.169 11.038 11.038 0 00-.88-2.503 10.949 10.949 0 00-1.456-2.232 11.205 11.205 0 00-4.297-3.144c-6.72-2.77-16.169.763-22.484 4.198a58.949 58.949 0 00-5.773 3.632c.197 4.667-1.755 10.305-5.784 14.557a15.063 15.063 0 01-1.663 1.469 21.399 21.399 0 01-3.327 2.045 1.774 1.774 0 01-1.102.163 1.78 1.78 0 01-.986-.503c-1.79-1.912-1.76-4.282-.915-6.643 1.688-4.603 6.603-9.22 10.693-12.315a7.963 7.963 0 00-1.906-4.253 4.953 4.953 0 00-2.215-.897 24.908 24.908 0 00-7.007-.034c-6.102.69-14.369 2.858-22.625 6.78-.283 3.524-2.042 7.368-4.181 10.35-2.371 3.104-6.163 6.894-10.106 8.259a9.162 9.162 0 01-1.745.409c-.192.01-.379-.01-.561-.064-1.016-.32-1.127-1.08-1.325-2.045-1.092-5.54 2.731-10.31 7.422-13.966a53.016 53.016 0 017.528-4.712 5.43 5.43 0 00-.611-2.217 5.502 5.502 0 00-1.477-1.78c-2.093-1.704-6.238-1.615-9.039-1.315-7.225.754-15.309 3.484-21.786 6.436-.182 5.337-4.646 12.774-8.377 17.026-1.851 2.065-4.955 5.2-7.771 4.43a3.065 3.065 0 01-1.127-.605c-1.967-1.504-3.196-3.361-3.216-5.687 0-5.11 6.188-10.034 10.88-12.922a74.71 74.71 0 016.906-3.79 5.575 5.575 0 00-.48-1.285c-1.582-3.046-5.981-3.938-9.712-4.061-8.403-.276-19.404 2.907-26.629 6.5-.05 5.18-2.811 11.867-6.249 16.336-.99 1.286-2.497 2.982-3.938 3.84-2.15 1.34-3.939.97-4.975-.203a9.04 9.04 0 01-1.876-3.676c-1.127-4.736 2.407-9.21 6.406-12.424a48.42 48.42 0 018.281-5.273c-.248-2.77-1.3-4.307-2.745-5.45a7.964 7.964 0 00-2.498-1.217 11.97 11.97 0 00-1.456-.33 10.948 10.948 0 00-2.442-.124c-7.007.404-16.942 4.155-23.17 7.121a27.905 27.905 0 01-1.467 8.24 28.053 28.053 0 01-3.847 7.456 19.11 19.11 0 01-2.432 2.77c-1.608 1.394-6.128 4.696-8.307 4.287a1.896 1.896 0 01-1.092-.596c-8.534-8.482 4.075-18.022 15.142-23.428-.045-2.44-.566-5.726-2.972-6.756a5.354 5.354 0 00-2.073-.444c-4.025 0-9.313 2.932-12.62 4.982C21.898 14.61 8.389 26.88 2.902 33.138c-1.78 2.03-.854 1.331-1.845 1.957l-.668-.114L0 34.474c.137-.705.096-.582.177-.705C3.847 28.585 31.7 1.53 44.507 1.53c4.954 0 6.835 3.494 7.143 8.003 5.855-2.804 18.524-7.46 24.905-6.904 2.487.133 4.702.97 6.643 2.513 1.689 1.508 2.68 3.376 2.983 5.604 8.817-4.105 24-8.422 33.151-5.372 2.998 1 5.309 2.77 6.193 5.583a88.292 88.292 0 0113.014-4.642c4.798-1.31 12.387-2.72 17.119-1.251a8.185 8.185 0 013.079 1.636c1.426 1.177 2.325 2.67 2.684 4.47a80.948 80.948 0 018.383-3.322c6.193-2.06 19.141-5.327 24.768-2.213a5.575 5.575 0 012.205 2.282c.51.848.905 1.744 1.178 2.696a58.287 58.287 0 019.262-5.076c4.717-2.05 9.757-3.5 14.98-3.322 7.195.232 12.387 4.549 13.979 10.334.132.429.334 1.355.349 1.484a68.257 68.257 0 016.942-3.874 76.886 76.886 0 017.953-3.37c3.837-1.385 10.263-3.263 14.353-2.691.49.064.971.177 1.436.335.945.31 1.714.862 2.3 1.656 1.739 2.212 2.285 4.74 2.285 7.48.147-.098 2.417-1.759 4.748-3.114 5.526-3.322 14.636-7.279 21.209-6.47 4.348.413 8.549 3.38 9.343 8.382 3.539-2.528 12.432-6.732 21.335-8.93 5.562-1.281 12.903-2.587 17.974-.04a8.447 8.447 0 012.219 1.617c1.81 1.843 2.351 4.514 2.124 6.934C359.72 6.36 376.04-2.348 385.08 3.206a5.52 5.52 0 012.194 2.242c6.962-4.209 18.014-8.097 24.298-3.085a9.017 9.017 0 012.644 3.726 15.34 15.34 0 01.986 5.386 64.73 64.73 0 0111.168-6.717c4.348-2.025 9.429-3.73 14.333-3.73zM108.836 26.077c-.981 1.892-1.158 3.69.248 5.351.425.503.905.942 1.441 1.321h.141c.197-.025.385-.074.561-.158a7.807 7.807 0 001.775-1.108c3.762-2.967 9.08-10.975 10.132-16.563-4.924 2.43-11.78 6.672-14.298 11.157zm-67.641-8.122c-5.734 4.322-10.188 9.694-5.097 14.71.203-.02.4-.064.592-.128.116-.044.344-.118.637-.251a26.164 26.164 0 004.677-2.977 14.926 14.926 0 002.846-3.114c2.841-4.017 4.434-8.471 4.773-13.355a59.485 59.485 0 00-8.428 5.115zm42.777-3.518c-6.178 3.34-14.39 9.368-12.058 15.459a6.346 6.346 0 001.294 2.07h.42c3.326-.676 9.418-9.664 10.248-17.618l.096.089zm301.613-5.313c-2.123 1.513-2.442 1.735-4.277 3.248-4.029 3.484-8.898 8.392-9.935 13.34-.409 2.08.233 3.873 2.367 4.893h.111c3.579-1.153 11.734-13.478 11.734-21.5v.02zm-41.761 10.734c-.404.477-.783.98-1.122 1.507a66.7 66.7 0 00-4.399 7.55c-.778 1.621-.657 1.553-.733 1.66.177-.098.344-.201.506-.32 1.881-1.236 4.131-4.385 5.384-6.43a46.261 46.261 0 002.993-5.978c-1.562 1.143-1.784 1.325-2.629 2.01zm-196.721 6.51a7.579 7.579 0 00-.485 3.971c4.009-1.38 10.005-7.608 11.775-14.074.04-.158.131-.508.142-.582-4.409 2.494-9.697 6.2-11.432 10.684zm86.545-6.683c-1.774 1.557-3.781 3.578-4.747 5.672a7.723 7.723 0 00-.652 1.942 5.15 5.15 0 00.136 2.508 8.683 8.683 0 002.023-1.843 13.526 13.526 0 001.613-2.587c0-.158 1.081-1.66 1.633-5.692h-.006zm210.357-.581c-1.84 2.488-4.94 7.15-5.506 10.082 0 .094-.05.296-.05.4a9.826 9.826 0 001.845-1.35 23.303 23.303 0 005.106-6.319 23.072 23.072 0 002.624-7.638c-.141.148-2.452 2.72-4.019 4.825zm-35.517 1.522c-2.659 3.455-2.75 5.106-2.872 7.101a8.2 8.2 0 000 1.853 4.843 4.843 0 001.795-1.384c2.69-3.11 4.378-7.998 5.117-11.916a35.633 35.633 0 00-4.04 4.346zm-220.923 5.046a4.453 4.453 0 00-.202 3.16 19.941 19.941 0 002.305-1.612c2.584-2.178 5.177-6.515 5.754-11.113-2.821 2.282-6.588 6.17-7.857 9.566zm74.78 3.115c2.948-2.8 3.479-4.13 4.955-7.663-2.24 2.39-3.964 4.642-4.955 7.663zm41.357-10.452c-2.65 2.43-4.899 5.12-5.729 8.57-.116.473-.197.95-.252 1.434.728-.65 1.385-1.37 1.966-2.159.754-1 1.431-2.05 2.028-3.149a23.018 23.018 0 001.976-4.696h.011z" fill="#000"/></svg>