<svg width="469" height="92" fill="none" xmlns="http://www.w3.org/2000/svg"><path d="M.375 87.073c7.484-7.73 23.068-21.911 39.833-33.911a263.511 263.511 0 0153.657-29.683c19.005-7.78 39.13-13.468 55.604-16.328 16.468-2.864 27.026-3.375 35.245-2.5 8.213.875 14.052 3.063 17.614 6.401 3.557 3.344 5.104 7.938 4.792 12.542-.313 4.604-1.703 8.542-3.901 12.755-2.198 4.219-5.214 8.708-9.047 13.458-3.839 4.75-8.49 9.756-13.87 14.802-5.38 5.042-10.708 9.422-15.646 12.943-4.942 3.526-9.484 6.198-13.604 8.016-4.125 1.823-7.818 2.802-9.885 2.458-2.068-.349-2.808-1.687-2.37-3.62.443-1.932 2.469-4.812 6.276-8.375 3.807-3.567 9.364-7.734 16.505-12.02 7.141-4.282 14.953-8.13 22.995-11.589a261.913 261.913 0 0124.807-9.213c8.5-2.678 17.224-4.97 27.516-7.063 10.286-2.089 21.005-3.406 30.239-3.484 9.24-.078 16.98 1.062 23.219 3.38 6.24 2.323 11.021 5.776 13.787 10.625 2.765 4.849 3.349 10.312 2.015 15.265-1.333 4.959-4.63 9.552-10.026 13.808-5.396 4.26-12.927 8.135-17.64 9.646-4.714 1.515-5.36 1.099-5.365.864-.005-.24.552-1.307 2.219-3.062 1.666-1.76 4.442-3.995 8.114-6.396 3.667-2.396 7.834-4.693 12.375-6.912 4.542-2.218 9.459-4.37 14.75-6.448 5.287-2.078 10.953-4.073 18.24-6.599 7.286-2.52 17.422-5.552 29.943-8.536 12.526-2.984 27.432-5.917 44.713-8.792 17.281-2.88 36.953-5.578 52.88-7.729 15.927-2.156 15.386-6.307 4.761-4.911 0 0-21.281 2.692-40.193 5.625-18.911 2.932-35.474 5.86-49.682 8.843-14.209 2.99-26.073 6.026-35.563 9.13-9.495 3.105-15.437 5.074-21.057 7.136-5.625 2.057-10.88 4.198-15.771 6.422-4.89 2.224-9.417 4.531-13.599 6.932-4.177 2.401-7.859 5.042-10.515 7.35-2.662 2.306-4.36 4.395-4.974 6.614-.615 2.213.474 4.317 3.067 5.333 2.599 1.016 12-2.745 19.224-7.005 7.229-4.26 12.412-9.125 15.474-14.63 3.068-5.505 3.896-11.589 2.443-18.172-1.453-6.578-5.995-11.594-11.88-15.047-5.88-3.448-13.172-5.531-21.834-6.313-8.656-.776-18.698-.276-30.135 1.49-11.432 1.766-20.448 3.833-29.219 6.297a273.27 273.27 0 00-25.625 8.562 259.886 259.886 0 00-24.286 10.948c-7.886 4.058-14.797 8.703-19.99 12.839-5.192 4.135-8.734 7.839-10.62 11.292-1.88 3.448-1.817 6.833.662 9.515 2.479 2.683 6.953 2.214 11.193.823 4.239-1.385 8.791-3.63 13.671-6.708 4.881-3.084 10.099-7.005 15.678-11.771 5.578-4.766 10.901-10.052 15.406-15.099 4.505-5.047 8.203-9.89 11.094-14.531 2.89-4.64 4.968-9.089 6.229-13.459 1.26-4.37 1-10.979-1.782-16.244-2.781-5.266-7.968-8.875-15.291-10.839C185.922.235 176.479-.219 164.849.781c-11.635 1-32.792 5.318-52.833 11.776-20.047 6.459-38.964 15.063-56.76 25.802-17.792 10.735-34.449 23.61-42.449 30.756C-2.703 84.073 7.891 79.265.375 87.073z" fill="#121212"/></svg>