<svg width="468" height="82" fill="none" xmlns="http://www.w3.org/2000/svg"><path d="M466.385 9.338C457.937 3.406 447.541.271 436.322.271c-10.963 0-20.88 3.036-28.895 8.323-7.912-5.22-17.672-8.245-28.464-8.323a1.964 1.964 0 00-.432-.052c-10.964 0-20.886 3.036-28.896 8.322-7.917-5.213-17.672-8.24-28.464-8.322a2.003 2.003 0 00-.437-.052c-10.964 0-20.88 3.036-28.896 8.322-7.906-5.213-17.672-8.24-28.463-8.322a2.35 2.35 0 00-.433-.047c-10.963 0-20.885 3.036-28.901 8.323C226.13 3.223 216.369.198 205.583.12a2.057 2.057 0 00-.438-.052c-10.963 0-20.885 3.036-28.895 8.322-7.917-5.213-17.672-8.24-28.464-8.322a1.973 1.973 0 00-.437-.053c-10.964 0-20.881 3.037-28.896 8.323-7.901-5.213-17.672-8.24-28.464-8.323-.15 0-.291-.02-.443-.02-10.963 0-20.885 3.041-28.9 8.328C52.634 3.036 42.723-.005 31.75-.005c-11.214 0-21.61 3.14-30.063 9.073a2.01 2.01 0 00-.484 2.812 2.025 2.025 0 002.823.484C11.79 6.916 21.375 4.031 31.75 4.031c9.546 0 18.218 2.495 25.359 6.86-10.453 8.385-16.87 20.989-16.87 35.557 0 22.385 10.49 34.724 20.35 34.958h.119c9.86-.245 20.344-12.573 20.344-34.958 0-14.568-6.412-27.172-16.87-35.557C71.223 6.594 79.75 4.104 89.13 4.03c.13.031.276.042.427.042 9.541 0 18.219 2.49 25.359 6.86-10.458 8.384-16.87 20.983-16.87 35.551 0 22.39 10.474 34.73 20.344 34.959h.125c9.86-.24 20.344-12.568 20.344-34.959 0-14.568-6.412-27.167-16.87-35.552 7.042-4.307 15.563-6.786 24.948-6.86.13.032.271.042.412.042 9.546 0 18.218 2.49 25.364 6.86-10.458 8.385-16.87 20.984-16.87 35.552 0 22.39 10.485 34.729 20.344 34.958h.12c9.859-.24 20.349-12.567 20.349-34.958 0-14.568-6.417-27.167-16.87-35.552 7.042-4.308 15.563-6.792 24.932-6.86.136.032.276.042.417.042 9.547 0 18.219 2.49 25.359 6.86-10.453 8.38-16.869 20.984-16.869 35.552 0 22.385 10.489 34.724 20.349 34.958h.119c9.86-.245 20.344-12.573 20.344-34.958 0-14.568-6.411-27.172-16.87-35.553 7.042-4.307 15.563-6.791 24.938-6.859.13.026.271.037.427.037 9.542 0 18.213 2.494 25.359 6.859-10.458 8.385-16.87 20.99-16.87 35.557 0 22.386 10.474 34.724 20.344 34.959h.125c9.854-.245 20.344-12.573 20.344-34.959 0-14.568-6.412-27.172-16.87-35.557 7.042-4.307 15.563-6.787 24.938-6.86.13.032.27.042.411.042 9.547 0 18.219 2.49 25.365 6.86-10.459 8.385-16.87 20.984-16.87 35.552 0 22.39 10.474 34.729 20.344 34.958h.119c9.86-.24 20.349-12.568 20.349-34.958 0-14.568-6.416-27.167-16.869-35.552 7.041-4.308 15.562-6.787 24.932-6.86.13.031.276.042.417.042 9.546 0 18.218 2.49 25.359 6.86-10.453 8.385-16.87 20.984-16.87 35.551 0 22.391 10.479 34.73 20.349 34.959h.12c9.859-.24 20.344-12.568 20.344-34.959 0-14.567-6.412-27.166-16.87-35.552 7.146-4.37 15.818-6.86 25.364-6.86 10.375 0 19.969 2.886 27.73 8.334a2.039 2.039 0 002.828-.484 1.956 1.956 0 00-.469-2.787zM77 46.448c0 21.052-9.584 30.76-16.313 30.932-6.807-.172-16.39-9.88-16.39-30.932 0-13.703 6.239-25.495 16.348-33.146C70.76 20.953 77 32.745 77 46.448zm57.796.047c0 21.057-9.583 30.765-16.312 30.932-6.807-.167-16.396-9.875-16.396-30.932 0-13.698 6.245-25.495 16.354-33.141 10.115 7.646 16.354 19.443 16.354 33.14zm57.797.041c0 21.058-9.588 30.76-16.317 30.933-6.808-.172-16.391-9.875-16.391-30.933 0-13.698 6.24-25.495 16.354-33.14 10.11 7.645 16.354 19.442 16.354 33.14zm57.792.052c0 21.058-9.583 30.76-16.313 30.933-6.807-.172-16.395-9.875-16.395-30.933 0-13.703 6.244-25.494 16.354-33.14 10.114 7.646 16.354 19.427 16.354 33.14zm57.807.042c0 21.052-9.588 30.76-16.312 30.932-6.813-.171-16.396-9.88-16.396-30.932 0-13.703 6.24-25.495 16.354-33.146 10.099 7.651 16.354 19.443 16.354 33.146zm57.792.047c0 21.057-9.583 30.76-16.313 30.932-6.807-.172-16.39-9.875-16.39-30.932 0-13.698 6.239-25.495 16.349-33.14 10.104 7.645 16.354 19.432 16.354 33.14zm57.797.042c0 21.057-9.584 30.76-16.313 30.932-6.807-.172-16.396-9.875-16.396-30.932 0-13.703 6.245-25.495 16.355-33.141 10.104 7.646 16.354 19.438 16.354 33.14z" fill="#fff"/></svg>