<svg width="465" height="23" fill="none" xmlns="http://www.w3.org/2000/svg"><path d="M408.176 13.169c-2.87 2.958-6.213 4.917-10.042 6.11-3.01.953-6.073 1.432-9.224.713-1.531-.333-3.015-.906-4.208-1.953-.672-.573-1.198-.526-2.01-.193-5.641 2.193-11.427 2.912-17.401 1.813-2.771-.526-5.355-1.526-7.651-3.245-.48-.38-.86-.38-1.386-.14-6.359 3.244-13.099 4.15-20.13 3.624-2.578-.192-5.016-.812-7.219-2.245-1-.666-1.911-1.432-2.578-2.385-.432-.62-.766-.62-1.391-.333-2.963 1.432-6.067 2.338-9.369 2.625-4.636.427-9.177.146-13.433-1.907-.911-.432-1.77-.911-2.536-1.53-.427-.334-.714-.287-1.052.098-.813.906-1.719 1.766-2.724 2.48-3.104 2.338-6.646 3.624-10.375 4.343-4.302.813-8.651.906-12.953.094-3.781-.714-6.745-2.625-8.797-5.917-.813-1.286-.625-1.146-1.917-.427-4.396 2.432-9.13 3.865-14.104 4.39-3.729.38-7.458.475-11.187-.051-2.532-.334-4.875-1.146-6.787-2.912-.479-.427-.859-.52-1.484-.281-5.782 2.479-11.854 3.432-18.167 3.146-3.922-.188-7.698-.86-11.141-2.865-.76-.427-1.385-1.38-2.244-1.333-.766.047-1.532.713-2.297 1.099-5.641 2.765-11.615 3.911-17.88 3.385-2.198-.187-4.303-.713-6.167-1.906-.667-.432-1.245-.386-1.958-.146-5.308 2.005-10.709 2.052-16.162.526a11.368 11.368 0 01-3.349-1.573c-.62-.432-1.099-.432-1.765-.052-6.36 3.724-13.292 5.11-20.61 4.49-3.729-.287-7.073-1.672-9.609-4.584-.474-.526-.813-.573-1.433-.286-3.921 1.865-8.078 2.245-12.333 1.865-2.151-.193-4.208-.625-6.166-1.485-1.771-.76-3.303-1.812-4.688-3.099-.48.094-.719.48-1.052.766-4.828 4.198-10.422 6.344-16.734 6.87-2.964.24-5.88.192-8.75-.526-3.823-1-6.693-3.245-8.51-6.73-.428-.859-.475-.906-1.287-.333-4.594 3.052-9.61 4.25-15.11 3.912-2.823-.188-5.5-.86-7.89-2.48-.48-.333-.907-.573-1.48-.093-2.87 2.286-6.218 3.338-9.755 3.817-4.062.573-8.125.62-12.093-.432-2.152-.573-4.209-1.48-5.933-2.912-1.526-1.24-2.625-2.859-3.39-4.624-.1-.24-.193-.433-.193-.672-.146-.334-.094-.808.38-1 .526-.193.912.093 1.104.573.047.14.094.286.14.38 1.006 2.531 2.824 4.344 5.261 5.49 2.245 1.046 4.636 1.62 7.125 1.765 3.776.188 7.552 0 11.235-1.099a16.477 16.477 0 004.302-2.099c1.099-.766 1.099-.766.333-1.766-1.48-2.005-2.198-4.296-2.104-6.776.047-1.24.385-2.432 1.151-3.437 1.573-2.005 3.963-2.287 5.88-.667 1.625 1.386 2.104 3.198 1.959 5.25-.146 2.005-.907 3.719-2.198 5.297-.339.38-.672.813-1.053 1.24.714.86 1.672 1.192 2.63 1.573 2.532.958 5.162 1.192 7.792 1.052 4.11-.24 7.839-1.573 11.235-3.865.718-.48 1.005-.953.86-1.812-.24-1.865.098-3.677.91-5.396.48-1.047 1.193-1.813 2.292-2.193 1.339-.432 2.438.14 2.87 1.526.333 1.052.094 2.052-.24 3.052-.526 1.625-1.578 2.912-2.77 4.058-.959.859-.959.906-.386 2.005 1.724 3.437 4.594 5.49 8.271 6.01 8.083 1.193 15.542-.333 22.042-5.437.286-.24.573-.48.86-.714.957-.86.91-.86.385-1.958-.912-1.912-1.146-3.865-.672-5.917.192-.812.526-1.526 1.099-2.099 1.291-1.245 3.062-1.099 4.02.427.813 1.24 1 2.625.667 4.104a9.438 9.438 0 01-1.719 3.865c-.479.667-.338 1.052.235 1.526 1.677 1.48 3.588 2.438 5.74 2.958 4.015 1.005 8.077.907 12.093-.047.479-.093.912-.286 1.339-.427.671-.24 1.484-.385 1.864-.953.339-.573-.286-1.198-.427-1.817-.719-2.573-.573-5.058.719-7.396.62-1.094 1.432-2 2.625-2.526 2.151-.959 4.255 0 5.021 2.192.625 1.912.239 3.724-.714 5.443-.818 1.427-1.963 2.526-3.156 3.578-1.391 1.193-1.391 1.193.047 2.48 1.771 1.525 3.823 2.53 6.073 2.817 7.406 1.047 14.39-.385 20.89-4.01.146-.047.193-.193.386-.334-.959-1.24-1.724-2.578-2.011-4.15-.526-3.105.287-5.824 2.297-8.162A4.948 4.948 0 01149.765.57c2.869-.474 5.114 1.193 5.546 4.104.287 1.912-.145 3.677-1.151 5.297-.859 1.432-2.005 2.625-3.25 3.724-.427.38-.953.62-1.239 1.333 5.927 3.058 11.948 2.818 18.068.86 0-.667-.381-1.047-.573-1.48-.813-2.051-.141-4.437 1.578-5.723 2.01-1.48 4.448-.48 4.781 2.005.193 1.62-.432 2.958-1.432 4.15-.339.381-.672.761-1.052 1.194 1.958 1.24 4.109 1.672 6.307 1.812 6.219.333 12.099-1 17.594-4.057.146-.047.239-.188.338-.287 0-.526-.432-.807-.625-1.24-1.479-2.812-1.338-5.536.339-8.208 1.765-2.812 5.781-2.526 7.406-1.192 1.292 1.052 1.865 2.338 1.484 4.01-.286 1.38-1.005 2.526-1.864 3.578-1.005 1.24-2.297 2.245-3.537 3.245.287.573.86.813 1.292 1.099 2.484 1.526 5.255 2.146 8.078 2.432 6.214.62 12.287-.047 18.12-2.244.38-.141.766-.334 1.193-.474.479-.193.625-.433.479-.959-1.005-4.052 1.245-7.396 5.307-8.062 1.005-.14 2.011 0 2.87.479 1.099.573 1.578 1.62 1.338 2.812-.192.954-.718 1.766-1.338 2.433-1.005 1.099-2.198 1.958-3.443 2.677-.479.286-.958.573-1.531.854.24.573.766.812 1.245 1.099 1.432.906 3.01 1.338 4.687 1.526 8.219.958 16.11-.047 23.568-3.912.38-.192.719-.427 1.099-.62.573-.286.719-.62.479-1.239-.573-1.672-.62-3.437-.432-5.203.192-1.86 1.052-3.292 2.583-4.39 1.146-.808 2.438-1 3.776-.714 1.531.333 2.49 1.765 2.297 3.578-.146 1.286-.625 2.48-1.292 3.578-.958 1.48-2.151 2.766-3.489 3.865-.959.765-.912.765-.287 1.812 1.719 2.912 4.302 4.63 7.599 5.203 6.459 1.1 12.719.573 18.745-2.146 2.198-1.005 4.063-2.385 5.688-4.15.479-.48.526-.86.145-1.48-1.052-1.765-1.151-3.677-.526-5.583.24-.766.667-1.48 1.339-1.958 1.338-1 2.917-.48 3.391 1.099.385 1.192.239 2.432-.047 3.625-.24.906-.48 1.812-1.006 2.625-.427.666-.187 1 .339 1.385 1.865 1.333 3.969 2.193 6.214 2.625 5.833 1.094 11.473.52 16.927-1.958 1.046-.48 1.046-.48.812-1.573-.432-2.052-.385-4.058.427-5.97 1.099-2.478 3.49-3.718 6.12-3.192 2.151.427 4.302 2.672 2.49 5.63-.766 1.24-1.818 2.193-2.917 3.053a22.395 22.395 0 01-2.823 1.906c-.573.338-.526.625-.146 1.099 1.245 1.526 2.87 2.432 4.735 3.005 2.869.906 5.88 1.005 8.843.86 4.308-.24 8.417-1.048 12.386-2.766.333-.146.666-.287 1.005-.48.766-.427.812-.427.333-1.24-1.338-2.338-1.531-4.723-.192-7.155.718-1.339 1.817-2.292 3.395-2.485 2.87-.333 5.261 2.386 4.688 5.35-.339 1.666-1.245 2.958-2.49 4.005-.573.479-1.146.953-1.817 1.479.385.573.958.812 1.437 1.099a19.556 19.556 0 007.984 2.291c4.063.235 8.032-.146 11.901-1.385.766-.24 1.532-.432 2.204-.906-.047-.48-.386-.766-.573-1.146-1.485-3.005-1.292-5.917.234-8.828.912-1.72 2.391-2.386 4.255-2.1a9.086 9.086 0 012.823.86c2.245 1.193 3.156 3.484 2.245 5.87-.667 1.812-1.958 3.099-3.438 4.245-.718.526-1.484 1.005-2.25 1.526.719.86 1.672 1.245 2.631 1.578 2.437.807 4.922.666 7.411.047 3.969-1.005 7.552-2.672 10.516-5.537.573-.573.765-1 .338-1.812-.958-1.766-1.151-3.677-.526-5.63.526-1.672 1.526-2.912 3.25-3.532 1.479-.526 2.87.24 3.297 1.766.287 1.047.047 2.052-.193 3.052a11.716 11.716 0 01-2.437 4.583c-.479.573-.479.953.047 1.526 3.541 4.058 7.937 5.677 13.344 5.058 3.63-.427 6.692-1.907 9.369-4.297 1.052-.953 1.052-.953.474-2.193-.76-1.766-1.192-3.578-.812-5.536.239-1.24.958-2.146 2.151-2.625 1.963-.808 3.682.24 3.875 2.338.193 2.1-.479 4.01-1.485 5.823-.812 1.432-.812 1.432.48 2.432 3.828 2.912 7.937 2.959 12.192 1.292.24-.099.433-.193.672-.286 1.24-.573 1.24-.573.86-1.865-.625-1.953-.625-3.911.14-5.818.625-1.625 1.865-2.484 3.203-2.338 1.339.14 2.391 1.38 2.584 3.146.146 1.145-.146 2.244-.62 3.296-.479 1.047-1.151 1.954-1.964 2.766-.526.526-.38.86.052 1.287 1.047 1.052 2.245 1.864 3.537 2.578 1.625.906 3.344 1.526 5.068 2.192.333.146.718.24 1.052.433.666.38.812.859.479 1.385-.386.62-1.198.86-1.677.333-.573-.62-1.292-.765-1.959-1.052-2.151-.86-4.255-1.812-6.119-3.198-.287-.234-.573-.474-.907-.713-.578-.432-.911-1.339-1.578-1.339-.625-.047-1.291.526-1.916.813-4.49 1.86-8.891 2.005-13.146-.714-.667-.432-1.292-.958-1.912-1.479-.432-.385-.672-.333-1.052.047a15.94 15.94 0 01-2.63 2.146c-4.589 3.104-9.609 3.77-14.917 2.625-2.63-.526-4.781-2.005-6.692-3.818-.526-.667-1.146-1.286-1.865-2.052zm-260.083.287c2.005-1.386 3.729-2.959 4.828-5.105.765-1.432 1.005-2.958.38-4.484-.573-1.432-1.958-2.104-3.443-1.625-.906.286-1.578.812-2.104 1.573-.666.86-1.146 1.864-1.338 2.911-.573 2.532-.24 4.771 1.677 6.73zm234.552-2.766c0 1.479.333 2.672 1.052 3.818.333.573.672.666 1.245.286.906-.573 1.864-1.099 2.63-1.865.906-.859 1.719-1.718 2.151-2.911.526-1.526 0-2.813-1.391-3.578-.76-.427-1.573-.62-2.437-.714-1-.093-1.719.287-2.245 1.146-.719 1.193-.958 2.578-1.005 3.818zM195.468 8.304c.052 1.24.385 2.386 1.104 3.433.333.526.667.573 1.146.192.906-.718 1.864-1.432 2.63-2.338.766-.86 1.432-1.766 1.766-2.865.432-1.333-.141-2.432-1.433-2.911-1.718-.667-3.442-.047-4.349 1.531-.526.906-.765 1.906-.864 2.958zM35.02 5.68c0-.526 0-1.052-.193-1.625-.474-1.38-1.625-2.338-2.77-2.24-1.1.095-2.006 1.095-2.246 2.574-.385 2.484.334 4.677 1.766 6.635.287.427.625.573 1.005.094 1.485-1.48 2.438-3.198 2.438-5.438zm81.849 7.25c1.916-1.432 3.541-2.911 4.354-5.15a4.056 4.056 0 00.141-2.386c-.334-1.625-1.672-2.198-3.058-1.292a4.238 4.238 0 00-1.578 1.959c-.958 2.291-.859 4.484.141 6.87zm209.791-.859c1.912-1.047 3.537-2.146 4.875-3.625.339-.333.573-.713.813-1.146.625-1.146.24-2.099-.953-2.625-1.531-.62-3.443 0-4.255 1.48-1.052 1.812-1.099 3.723-.48 5.916zm34.662-3.432c0-1.24-.719-2.245-1.818-2.578-1.052-.334-2.052.093-2.771 1.192-1.145 1.72-1.099 4.151.141 5.823.385.526.672.526 1.151.188.859-.62 1.719-1.287 2.391-2.146.573-.76.906-1.573.906-2.48zm-97.438 2.625c2.058-1.578 3.683-3.297 4.401-5.683a4.36 4.36 0 00.141-1.093c0-1.052-.526-1.578-1.578-1.526-1.385.093-2.438.854-2.964 2.099-.906 2-.812 4.052 0 6.203zm-30.5-4.058c-1.671 0-3.635 1.527-4.114 3.386-.188.719-.141 1.385.099 2.104.187.427.38.62.859.333.813-.479 1.625-.906 2.438-1.432.911-.573 1.77-1.292 2.39-2.198.334-.474.672-1 .386-1.573-.292-.573-.912-.62-1.485-.62h-.573zm174.985 2.912c1.338-1.526 2.151-3.151 2.531-4.964.047-.333.099-.666.047-1-.094-.859-.573-1.145-1.339-.765-.906.479-1.432 1.24-1.718 2.146-.433 1.526-.334 3.005.479 4.583zm-316.12.047c1.052-1.672 1.818-3.104 1.578-4.917-.094-.667-.24-1.333-.958-1.573-.474-.146-1.1.526-1.292 1.433-.333 1.62-.286 3.244.672 5.057zm360.818 2.338c1.104-1.146 1.817-2.198 2.156-3.484a3.355 3.355 0 000-1.672c-.146-.474-.292-.906-.865-1-.573-.094-.859.24-1.099.714-.14.286-.286.573-.38.906-.432 1.432-.432 2.865.188 4.536zm-17.974-1.859c1.005-1.625 1.578-3.104 1.625-4.776 0-.573-.047-1.193-.766-1.333-.667-.094-1.193.24-1.531.812-.047.14-.141.234-.188.38-.286 1.672 0 3.245.86 4.917zm-266.396 1.62c0 .86.193 1.432.573 2.005.146.193.333.286.573.14.958-.473 2.057-2.385 1.963-3.432-.052-.479-.192-.958-.672-1.146-.479-.192-.953-.098-1.338.24-.667.62-1.052 1.38-1.099 2.193zM58.015 9.35c1.53-1.385 2.442-2.812 2.536-4.677 0-.286 0-.573-.286-.76-.334-.193-.62.047-.86.24-.193.14-.385.333-.479.52-.719 1.386-1.099 2.865-.911 4.677zm240.817 1.146c.818-1.526 1.198-2.864 1.052-4.344 0-.286-.093-.62-.38-.666-.286-.094-.526.192-.672.432-.76 1.38-.906 2.86 0 4.578z" fill="#121212"/></svg>