<svg width="468" height="65" fill="none" xmlns="http://www.w3.org/2000/svg"><path d="M197.365 43.458c2.994-1.005 3.781-3.36 5.197-5.036 4.464-5.297 9.532-9.922 15.438-13.557 12.224-7.516 20.937-5.214 27.62 7.437 2.531 4.787 4.484 9.87 6.776 14.787.995 2.135 2.182 2.291 3.87.572 1.609-1.635 3.099-3.375 4.677-5.036 8.661-9.089 18.875-15.76 30.968-19.484 12.032-3.709 22.693-1.86 31.532 7.599 3.911 4.187 7.869 8.333 11.968 12.328 2.834 2.76 4.349 2.703 7.36-.058 4.427-4.067 8.614-8.406 13.12-12.39 13.474-11.907 28.713-20.839 45.89-26.5 6.344-2.094 12.771-3.287 19.464-3.193 9.328.13 17.583 3.208 24.265 9.573 8.542 8.13 15.334 17.73 21.855 27.49.312.463.682 1.088.593 1.562-.14.77-.448 1.75-1.031 2.146-.583.396-1.75.495-2.37.172-.979-.505-1.838-1.375-2.531-2.26-1.948-2.47-3.781-5.027-5.661-7.553-2.73-3.677-5.48-7.333-8.172-11.031-10.464-14.38-24.542-17.776-41.198-13.401-19.058 5.005-35.375 14.818-49.75 27.995-2.953 2.708-5.709 5.635-8.63 8.385-1.662 1.568-3.36 3.146-5.256 4.406-3.406 2.271-6.395 2.157-9.484-.479-2.391-2.041-4.453-4.453-6.677-6.682-3.234-3.245-6.333-6.636-9.761-9.672-5.234-4.64-11.354-6.266-18.395-5.005-10.464 1.875-19.657 6.318-27.698 13.057-3.5 2.932-6.558 6.39-9.802 9.625-1.62 1.615-3.094 3.401-4.855 4.85-2.39 1.973-4.947 1.593-6.619-1-1.224-1.907-2.099-4.037-3.068-6.1-2.188-4.646-4.094-9.443-6.557-13.943-3.969-7.25-8.922-8.744-16.558-5.28-5.296 2.41-9.849 5.937-13.677 10.254-2.838 3.209-5.291 6.745-7.963 10.1-1.422 1.78-2.802 3.624-4.433 5.203-1.776 1.729-4.812.703-5.369-1.782-.375-1.656-.391-3.39-.563-5.088-.364-3.683-.536-7.401-1.13-11.047-1.693-10.417-7.927-16.047-18.458-17.01-7.131-.652-13.709 1.01-19.844 4.536-9.052 5.208-16.953 11.74-23.292 20.068-1.724 2.27-3.484 4.526-5.406 6.635-1.276 1.411-3.474 1.135-4.38-.563a53.074 53.074 0 01-3.099-7.005c-1.735-4.828-3.271-9.734-5.776-14.26-3.459-6.235-8.771-9.578-15.89-10.307-8.97-.917-14.975 2.078-19.032 10.099-2.313 4.578-4.12 9.406-6.224 14.093a44.578 44.578 0 01-2.766 5.245c-.687 1.094-3.224 1.036-3.776-.078a42.423 42.423 0 01-2.213-5.49C58.64 35.422 57 29.35 53.682 23.917c-3.604-5.907-8.573-9.818-15.547-11.198-6.729-1.334-12.541.255-17.541 4.812-4.105 3.745-6.933 8.37-8.802 13.537-3.407 9.406-6.589 18.875-6.615 29.041-.005.287.005.573-.016.855-.224 2.453-1.28 3.854-2.744 3.578C.66 64.213.37 62.802.167 61.37a8.528 8.528 0 01-.094-1.709c.776-14.78 4.286-28.755 12.995-41.03 11.416-16.09 32.573-13.25 42.765.004 2.464 3.209 4.282 6.745 5.745 10.485.927 2.375 1.849 4.75 2.781 7.146 2.438-.198 2.433-2.209 3.157-3.5 2.093-3.73 3.843-7.667 6.125-11.271 3.453-5.448 8.703-8.021 15.14-8.537 13.323-1.062 22.047 3.875 27.542 15.985 1.995 4.385 3.63 8.932 5.391 13.312 3.156-.016 3.953-2.547 5.317-4.219 6.792-8.312 14.896-15.047 24.396-20.088 8.432-4.474 17.313-6.016 26.667-3.313 10.031 2.901 16.411 9.037 17.698 19.709.364 2.995 1.02 5.948 1.573 9.114z" fill="#121212"/></svg>