<svg width="18" height="17" fill="none" xmlns="http://www.w3.org/2000/svg"><path d="M9 16.25l-.55-.5a145.551 145.551 0 01-4.013-3.8c-1.058-1.05-1.891-1.97-2.5-2.762C1.33 8.396.904 7.684.662 7.05A5.297 5.297 0 01.3 5.15c0-1.183.404-2.179 1.212-2.987C2.321 1.354 3.316.95 4.5.95c.883 0 1.708.238 2.475.713C7.74 2.138 8.416 2.833 9 3.75c.583-.916 1.258-1.612 2.025-2.087A4.616 4.616 0 0113.5.95c1.183 0 2.179.404 2.987 1.213.809.808 1.213 1.804 1.213 2.987 0 .634-.121 1.267-.363 1.9-.241.634-.666 1.346-1.275 2.138-.608.791-1.437 1.712-2.487 2.762a118.524 118.524 0 01-4.025 3.8l-.55.5zm0-.95a113.68 113.68 0 003.95-3.725c1.033-1.033 1.85-1.929 2.45-2.687.6-.759 1.016-1.43 1.25-2.013.233-.583.35-1.158.35-1.725 0-1-.334-1.833-1-2.5-.667-.666-1.5-1-2.5-1-.8 0-1.538.23-2.213.688-.675.458-1.32 1.179-1.937 2.162h-.7c-.634-1-1.284-1.725-1.95-2.175a3.85 3.85 0 00-2.2-.675c-.984 0-1.813.334-2.488 1C1.337 3.317 1 4.15 1 5.15c0 .567.116 1.142.35 1.725.233.584.65 1.254 1.25 2.013.6.758 1.416 1.65 2.45 2.675C6.083 12.588 7.4 13.833 9 15.3z" fill="#121212"/></svg>