<svg width="19" height="17" fill="none" xmlns="http://www.w3.org/2000/svg"><path d="M9.662 5h.271l.148-.228c.615-.947 1.238-1.608 1.86-2.016a3.587 3.587 0 012.014-.606c.916 0 1.65.29 2.239.86.587.568.882 1.27.882 2.14a3.99 3.99 0 01-.324 1.534c-.216.52-.614 1.148-1.218 1.887-.604.738-1.434 1.619-2.495 2.645-.99.956-2.235 2.095-3.737 3.417a139.16 139.16 0 01-3.742-3.431C4.499 10.184 3.67 9.308 3.066 8.57c-.605-.739-1.003-1.367-1.218-1.887a3.99 3.99 0 01-.324-1.534c0-.869.297-1.57.893-2.138.6-.573 1.331-.862 2.228-.862a3.58 3.58 0 012.002.594c.612.4 1.24 1.064 1.873 2.03L8.668 5h.994z" fill="#FFFEFE" stroke="#fff"/></svg>